<svg id="Ebene_1" data-name="Ebene 1" xmlns="http://www.w3.org/2000/svg" viewBox="0 0 680.31 680.31"><defs><style>.cls-1{fill:#fff;}.cls-1,.cls-2{stroke:#1d1d1b;stroke-miterlimit:10;stroke-width:8px;}.cls-2,.cls-3{fill:#1d1d1b;}</style></defs><title>T-Perm</title><rect class="cls-1" x="255.31" y="255.12" width="170.08" height="170.08"/><rect class="cls-1" x="255.31" y="425.2" width="170.08" height="170.08"/><rect class="cls-1" x="85.04" y="425.2" width="170.08" height="170.08"/><rect class="cls-1" x="85.24" y="85.04" width="170.08" height="170.08"/><rect class="cls-1" x="255.31" y="85.04" width="170.08" height="170.08" transform="translate(510.43 -170.27) rotate(90)"/><rect class="cls-1" x="425.2" y="85.04" width="170.08" height="170.08" transform="translate(680.31 -340.16) rotate(90)"/><polygon class="cls-2" points="560.35 149.32 510.24 99.21 460.13 149.32 560.35 149.32"/><rect class="cls-1" x="425.2" y="425.2" width="170.08" height="170.08" transform="translate(0 1020.47) rotate(-90)"/><polygon class="cls-2" points="460.13 530.99 510.24 581.1 560.35 530.99 460.13 530.99"/><rect class="cls-1" x="425.2" y="255.12" width="170.08" height="170.08" transform="translate(1020.47 680.31) rotate(180)"/><polygon class="cls-2" points="530.99 390.27 581.1 340.16 530.99 290.05 530.99 390.27"/><rect class="cls-1" x="85.04" y="255.12" width="170.08" height="170.08"/><polygon class="cls-2" points="149.32 290.05 99.21 340.16 149.32 390.27 149.32 290.05"/><line class="cls-1" x1="141.73" y1="340.16" x2="538.58" y2="340.16"/><line class="cls-1" x1="510.24" y1="141.73" x2="510.24" y2="538.58"/><rect class="cls-3" x="99.21" y="42.52" width="141.73" height="28.35" transform="translate(340.16 113.39) rotate(180)"/><rect class="cls-3" x="269.29" y="42.52" width="141.73" height="28.35" transform="translate(680.31 113.39) rotate(180)"/><rect class="cls-3" x="-14.17" y="155.91" width="141.73" height="28.35" transform="translate(226.77 113.39) rotate(90)"/><rect class="cls-3" x="-14.17" y="496.06" width="141.73" height="28.35" transform="translate(566.93 453.54) rotate(90)"/><rect class="cls-3" x="99.21" y="609.45" width="141.73" height="28.35" transform="translate(340.16 1247.24) rotate(180)"/><rect class="cls-3" x="269.29" y="609.45" width="141.73" height="28.35" transform="translate(680.31 1247.24) rotate(180)"/></svg>