<svg id="Ebene_1" data-name="Ebene 1" xmlns="http://www.w3.org/2000/svg" viewBox="0 0 680.31 680.31"><defs><style>.cls-1{fill:#fff;}.cls-1,.cls-3{stroke:#1d1d1b;stroke-miterlimit:10;stroke-width:8px;}.cls-2,.cls-3{fill:#1d1d1b;}</style></defs><title>Ub-Perm</title><rect class="cls-1" x="253.42" y="255.12" width="170.08" height="170.08" transform="translate(676.92 680.31) rotate(-180)"/><rect class="cls-1" x="83.54" y="425.2" width="170.08" height="170.08" transform="translate(337.16 1020.47) rotate(-180)"/><rect class="cls-1" x="423.7" y="425.2" width="170.08" height="170.08" transform="translate(1017.47 1020.47) rotate(-180)"/><rect class="cls-1" x="83.74" y="85.04" width="170.08" height="170.08"/><rect class="cls-1" x="423.7" y="85.04" width="170.08" height="170.08" transform="translate(678.82 -338.66) rotate(90)"/><rect class="cls-2" x="97.71" y="42.52" width="141.73" height="28.35" transform="translate(337.16 113.39) rotate(180)"/><rect class="cls-2" x="437.87" y="42.52" width="141.73" height="28.35" transform="translate(1017.47 113.39) rotate(180)"/><rect class="cls-2" x="-15.67" y="155.91" width="141.73" height="28.35" transform="translate(225.27 114.89) rotate(90)"/><rect class="cls-2" x="551.26" y="496.06" width="141.73" height="28.35" transform="translate(1132.36 -111.89) rotate(90)"/><rect class="cls-2" x="97.71" y="609.45" width="141.73" height="28.35" transform="translate(337.16 1247.24) rotate(180)"/><rect class="cls-2" x="437.87" y="609.45" width="141.73" height="28.35" transform="translate(1017.47 1247.24) rotate(180)"/><rect class="cls-2" x="551.26" y="155.91" width="141.73" height="28.35" transform="translate(792.2 -452.04) rotate(90)"/><rect class="cls-2" x="-15.67" y="496.06" width="141.73" height="28.35" transform="translate(565.43 455.04) rotate(90)"/><rect class="cls-1" x="83.54" y="255.12" width="170.08" height="170.08" transform="translate(508.74 171.58) rotate(90)"/><polygon class="cls-3" points="126.06 368.5 126.06 297.64 196.93 297.64 126.06 368.5"/><polygon class="cls-3" points="126.06 368.5 126.06 297.64 196.93 297.64 126.06 368.5"/><rect class="cls-1" x="423.7" y="255.12" width="170.08" height="170.08" transform="translate(1017.47 680.31) rotate(-180)"/><polygon class="cls-3" points="529.49 290.05 579.6 340.16 529.49 390.27 529.49 290.05"/><line class="cls-1" x1="537.08" y1="340.16" x2="225.27" y2="340.16"/><rect class="cls-1" x="253.62" y="425.2" width="170.08" height="170.08"/><polygon class="cls-3" points="367 552.76 296.14 552.76 296.14 481.89 367 552.76"/><line class="cls-1" x1="324.48" y1="524.41" x2="452.04" y2="396.85"/><polygon class="cls-3" points="367 552.76 296.14 552.76 296.14 481.89 367 552.76"/><line class="cls-1" x1="154.41" y1="325.98" x2="281.96" y2="453.54"/><rect class="cls-1" x="253.62" y="85.04" width="170.08" height="170.08" transform="translate(508.74 -168.58) rotate(90)"/><rect class="cls-2" x="267.79" y="42.52" width="141.73" height="28.35" transform="translate(677.32 113.39) rotate(180)"/></svg>