<svg id="Ebene_1" data-name="Ebene 1" xmlns="http://www.w3.org/2000/svg" viewBox="0 0 226.77 226.77"><defs><style>.cls-1{fill:#fff;stroke:#1d1d1b;stroke-miterlimit:10;stroke-width:4px;}.cls-2{fill:#1d1d1b;}</style></defs><title>Zeichenfläche 1</title><g id="blank"><rect class="cls-1" x="85.04" y="28.35" width="56.69" height="56.69"/><rect class="cls-1" x="141.73" y="28.35" width="56.69" height="56.69"/><rect class="cls-1" x="28.35" y="28.35" width="56.69" height="56.69"/><rect class="cls-1" x="85.04" y="85.04" width="56.69" height="56.69"/><rect class="cls-1" x="141.73" y="85.04" width="56.69" height="56.69"/><rect class="cls-1" x="28.35" y="85.04" width="56.69" height="56.69"/><rect class="cls-1" x="85.04" y="141.73" width="56.69" height="56.69"/><rect class="cls-1" x="141.73" y="141.73" width="56.69" height="56.69"/><rect class="cls-1" x="28.35" y="141.73" width="56.69" height="56.69"/></g><g id="blocks"><rect class="cls-2" x="92.13" y="92.13" width="42.52" height="42.52"/><rect class="cls-2" x="148.82" y="92.13" width="42.52" height="42.52"/><rect class="cls-2" x="35.43" y="92.13" width="42.52" height="42.52"/><rect class="cls-2" x="92.13" y="35.43" width="42.52" height="42.52"/><rect class="cls-2" x="148.82" y="35.43" width="42.52" height="42.52"/><rect class="cls-2" x="92.13" y="148.82" width="42.52" height="42.52"/><rect class="cls-2" x="35.43" y="205.51" width="42.52" height="14.17"/><rect class="cls-2" x="191.34" y="162.99" width="42.52" height="14.17" transform="translate(42.52 382.68) rotate(-90)"/><rect class="cls-2" x="-7.09" y="49.61" width="42.52" height="14.17" transform="translate(-42.52 70.87) rotate(-90)"/></g></svg>