<svg id="Ebene_1" data-name="Ebene 1" xmlns="http://www.w3.org/2000/svg" width="80mm" height="80mm" viewBox="0 0 226.7717 226.7717"><defs><style>.cls-1{fill:#fff;stroke:#1d1d1b;stroke-miterlimit:10;stroke-width:4px;}.cls-2{fill:#1d1d1b;}</style></defs><title>Zeichenfläche 1</title><g id="blank"><rect class="cls-1" x="85.0394" y="28.3465" width="56.6929" height="56.6929"/><rect class="cls-1" x="141.7323" y="28.3465" width="56.6929" height="56.6929"/><rect class="cls-1" x="28.3465" y="28.3465" width="56.6929" height="56.6929"/><rect class="cls-1" x="85.0394" y="85.0394" width="56.6929" height="56.6929"/><rect class="cls-1" x="141.7323" y="85.0394" width="56.6929" height="56.6929"/><rect class="cls-1" x="28.3465" y="85.0394" width="56.6929" height="56.6929"/><rect class="cls-1" x="85.0394" y="141.7323" width="56.6929" height="56.6929"/><rect class="cls-1" x="141.7323" y="141.7323" width="56.6929" height="56.6929"/><rect class="cls-1" x="28.3465" y="141.7323" width="56.6929" height="56.6929"/></g><g id="blocks"><rect class="cls-2" x="92.126" y="92.126" width="42.5197" height="42.5197"/><rect class="cls-2" x="148.8189" y="92.126" width="42.5197" height="42.5197"/><rect class="cls-2" x="35.4331" y="92.126" width="42.5197" height="42.5197"/><rect class="cls-2" x="92.126" y="35.4331" width="42.5197" height="42.5197"/><rect class="cls-2" x="148.8189" y="35.4331" width="42.5197" height="42.5197"/><rect class="cls-2" x="92.126" y="148.8189" width="42.5197" height="42.5197"/><rect class="cls-2" x="35.4331" y="205.5118" width="42.5197" height="14.1732"/><rect class="cls-2" x="191.3386" y="162.9921" width="42.5197" height="14.1732" transform="translate(42.5197 382.6772) rotate(-90)"/><rect class="cls-2" x="-7.0866" y="49.6063" width="42.5197" height="14.1732" transform="translate(-42.5197 70.8661) rotate(-90)"/></g></svg>