<svg id="Ebene_1" data-name="Ebene 1" xmlns="http://www.w3.org/2000/svg" viewBox="0 0 680.31 680.31"><defs><style>.cls-1,.cls-3{fill:#fff;}.cls-1{stroke:#1d1d1b;stroke-miterlimit:10;stroke-width:8px;}.cls-2{fill:#1d1d1b;}.cls-3{font-size:60px;font-family:MyriadPro-Regular, Myriad Pro;}.cls-4{letter-spacing:0em;}</style></defs><title>Zeichenfläche 29</title><rect class="cls-1" x="255.12" y="85.04" width="170.08" height="170.08"/><rect class="cls-1" x="425.2" y="85.04" width="170.08" height="170.08"/><rect class="cls-1" x="85.04" y="85.04" width="170.08" height="170.08"/><rect class="cls-1" x="255.12" y="255.12" width="170.08" height="170.08"/><rect class="cls-1" x="425.2" y="255.12" width="170.08" height="170.08"/><rect class="cls-1" x="85.04" y="255.12" width="170.08" height="170.08"/><rect class="cls-1" x="255.12" y="425.2" width="170.08" height="170.08"/><rect class="cls-1" x="425.2" y="425.2" width="170.08" height="170.08"/><rect class="cls-1" x="85.04" y="425.2" width="170.08" height="170.08"/><rect class="cls-2" x="552.76" y="155.91" width="141.73" height="28.35" transform="translate(453.54 793.7) rotate(-90)"/><rect class="cls-2" x="552.76" y="325.98" width="141.73" height="28.35" transform="translate(283.46 963.78) rotate(-90)"/><rect class="cls-2" x="552.76" y="496.06" width="141.73" height="28.35" transform="translate(113.39 1133.86) rotate(-90)"/><rect class="cls-2" x="-14.17" y="155.91" width="141.73" height="28.35" transform="translate(-113.39 226.77) rotate(-90)"/><rect class="cls-2" x="-14.17" y="325.98" width="141.73" height="28.35" transform="translate(-283.46 396.85) rotate(-90)"/><rect class="cls-2" x="-14.17" y="496.06" width="141.73" height="28.35" transform="translate(-453.54 566.93) rotate(-90)"/><rect class="cls-2" x="439.37" y="609.45" width="141.73" height="28.35" transform="translate(1020.47 1247.24) rotate(180)"/><rect class="cls-2" x="269.29" y="609.45" width="141.73" height="28.35" transform="translate(680.31 1247.24) rotate(180)"/><rect class="cls-2" x="99.21" y="609.45" width="141.73" height="28.35" transform="translate(340.16 1247.24) rotate(180)"/><rect class="cls-2" x="99.21" y="42.52" width="141.73" height="28.35" transform="translate(340.16 113.39) rotate(180)"/><rect class="cls-2" x="269.29" y="42.52" width="141.73" height="28.35" transform="translate(680.31 113.39) rotate(180)"/><rect class="cls-2" x="439.37" y="42.52" width="141.73" height="28.35" transform="translate(1020.47 113.39) rotate(180)"/><rect class="cls-2" x="113.39" y="283.46" width="453.54" height="113.39"/><text class="cls-3" transform="translate(248.27 354.41)"><tspan class="cls-4">D</tspan><tspan x="40.2" y="0">efault</tspan></text></svg>