<svg id="Ebene_1" data-name="Ebene 1" xmlns="http://www.w3.org/2000/svg" viewBox="0 0 283.46 283.46"><defs><style>.cls-1{fill:#fff;stroke:#575756;stroke-miterlimit:10;stroke-width:2px;}.cls-2{fill:#1d1d1b;}</style></defs><title>Sune</title><g id="OLL"><g id="blank"><rect class="cls-1" x="170.094" y="170.0808" width="56.6929" height="56.6929" transform="translate(396.8808 396.8545) rotate(-180)"/><rect class="cls-1" x="113.401" y="170.0808" width="56.6929" height="56.6929" transform="translate(283.495 396.8545) rotate(-180)"/><rect class="cls-1" x="56.7081" y="170.0808" width="56.6929" height="56.6929" transform="translate(170.1092 396.8545) rotate(-180)"/><rect class="cls-1" x="170.094" y="113.3879" width="56.6929" height="56.6929" transform="translate(396.8808 283.4687) rotate(-180)"/><rect class="cls-1" x="113.401" y="113.3879" width="56.6929" height="56.6929" transform="translate(283.495 283.4687) rotate(-180)"/><rect class="cls-1" x="56.7081" y="113.3879" width="56.6929" height="56.6929" transform="translate(170.1092 283.4687) rotate(-180)"/><rect class="cls-1" x="170.094" y="56.695" width="56.6929" height="56.6929" transform="translate(396.8808 170.0829) rotate(-180)"/><rect class="cls-1" x="113.401" y="56.695" width="56.6929" height="56.6929" transform="translate(283.495 170.0829) rotate(-180)"/><rect class="cls-1" x="56.7081" y="56.695" width="56.6929" height="56.6929" transform="translate(170.1092 170.0829) rotate(-180)"/></g><g id="edge"><rect class="cls-2" x="214.0158" y="80.9002" width="45.3543" height="8.5039" transform="translate(151.5408 321.8451) rotate(-90)"/><rect class="cls-2" x="62.3805" y="42.6325" width="45.3543" height="8.5039" transform="translate(170.1153 93.7689) rotate(-180)"/><rect class="cls-2" x="175.7618" y="232.6528" width="45.3543" height="8.5039" transform="translate(396.8779 473.8095) rotate(-180)"/></g><g id="top"><rect class="cls-2" x="175.7663" y="119.1679" width="45.3543" height="45.3543" transform="translate(396.887 283.6901) rotate(-180)"/><rect class="cls-2" x="119.0734" y="119.1679" width="45.3543" height="45.3543" transform="translate(283.5012 283.6901) rotate(-180)"/><rect class="cls-2" x="62.3805" y="119.1679" width="45.3543" height="45.3543" transform="translate(170.1153 283.6901) rotate(-180)"/><rect class="cls-2" x="119.0734" y="62.475" width="45.3543" height="45.3543" transform="translate(283.5012 170.3043) rotate(-180)"/><rect class="cls-2" x="119.0734" y="175.8608" width="45.3543" height="45.3543" transform="translate(283.5012 397.076) rotate(-180)"/><rect class="cls-2" x="62.3759" y="175.9599" width="45.3543" height="45.3543" transform="translate(170.1062 397.2741) rotate(-180)"/></g></g></svg>