<svg id="Ebene_1" data-name="Ebene 1" xmlns="http://www.w3.org/2000/svg" viewBox="0 0 283.46 283.46"><defs><style>.cls-1{fill:#fff;stroke:#575756;stroke-miterlimit:10;stroke-width:2px;}.cls-2{fill:#1d1d1b;}</style></defs><title>T</title><g id="OLL"><g id="blank"><rect class="cls-1" x="56.696" y="170.0808" width="56.6929" height="56.6929"/><rect class="cls-1" x="113.3889" y="170.0808" width="56.6929" height="56.6929"/><rect class="cls-1" x="170.0818" y="170.0808" width="56.6929" height="56.6929"/><rect class="cls-1" x="56.696" y="113.3879" width="56.6929" height="56.6929"/><rect class="cls-1" x="113.3889" y="113.3879" width="56.6929" height="56.6929"/><rect class="cls-1" x="170.0818" y="113.3879" width="56.6929" height="56.6929"/><rect class="cls-1" x="56.696" y="56.695" width="56.6929" height="56.6929"/><rect class="cls-1" x="113.3889" y="56.695" width="56.6929" height="56.6929"/><rect class="cls-1" x="170.0818" y="56.695" width="56.6929" height="56.6929"/></g><g id="edge"><rect class="cls-2" x="61.8759" y="42.7315" width="45.3543" height="8.5039"/><rect class="cls-2" x="62.3668" y="232.6528" width="45.3543" height="8.5039"/></g><g id="top"><rect class="cls-2" x="62.3622" y="119.1679" width="45.3543" height="45.3543"/><rect class="cls-2" x="119.0551" y="119.1679" width="45.3543" height="45.3543"/><rect class="cls-2" x="175.748" y="119.1679" width="45.3543" height="45.3543"/><rect class="cls-2" x="119.0551" y="62.475" width="45.3543" height="45.3543"/><rect class="cls-2" x="119.0551" y="175.8608" width="45.3543" height="45.3543"/><rect class="cls-2" x="175.7572" y="62.5741" width="45.3543" height="45.3543"/><rect class="cls-2" x="175.2618" y="175.9599" width="45.3543" height="45.3543"/></g></g></svg>