<svg id="Ebene_1" data-name="Ebene 1" xmlns="http://www.w3.org/2000/svg" viewBox="0 0 680.31 680.31"><defs><style>.cls-1{fill:#fff;stroke:#1d1d1b;stroke-miterlimit:10;stroke-width:8px;}.cls-2{fill:#1d1d1b;}</style></defs><title>T</title><rect class="cls-1" x="425.2" y="255.12" width="170.08" height="170.08" transform="translate(850.39 -170.08) rotate(90)"/><rect class="cls-1" x="425.2" y="425.2" width="170.08" height="170.08" transform="translate(1020.47 0) rotate(90)"/><rect class="cls-1" x="425.2" y="85.04" width="170.08" height="170.08" transform="translate(680.31 -340.16) rotate(90)"/><rect class="cls-1" x="255.12" y="255.12" width="170.08" height="170.08" transform="translate(680.31) rotate(90)"/><rect class="cls-2" x="269.29" y="269.29" width="141.73" height="141.73" transform="translate(680.31) rotate(90)"/><rect class="cls-1" x="255.12" y="425.2" width="170.08" height="170.08" transform="translate(850.39 170.08) rotate(90)"/><rect class="cls-2" x="269.29" y="439.37" width="141.73" height="141.73" transform="translate(850.39 170.08) rotate(90)"/><rect class="cls-1" x="255.12" y="85.04" width="170.08" height="170.08" transform="translate(510.24 -170.08) rotate(90)"/><rect class="cls-1" x="85.04" y="255.12" width="170.08" height="170.08" transform="translate(510.24 170.08) rotate(90)"/><rect class="cls-2" x="99.21" y="269.29" width="141.73" height="141.73" transform="translate(510.24 170.08) rotate(90)"/><rect class="cls-1" x="85.04" y="425.2" width="170.08" height="170.08" transform="translate(680.31 340.16) rotate(90)"/><rect class="cls-1" x="85.04" y="85.04" width="170.08" height="170.08" transform="translate(340.16) rotate(90)"/><rect class="cls-2" x="269.29" y="99.21" width="141.73" height="141.73" transform="translate(510.24 -170.08) rotate(90)"/><rect class="cls-2" x="439.37" y="269.29" width="141.73" height="141.73" transform="translate(850.39 -170.08) rotate(90)"/><rect class="cls-2" x="99.21" y="609.45" width="141.73" height="28.35"/><rect class="cls-2" x="439.37" y="439.37" width="141.73" height="141.73" transform="translate(1020.47 0) rotate(90)"/><rect class="cls-2" x="439.37" y="99.21" width="141.73" height="141.73" transform="translate(680.31 -340.16) rotate(90)"/><rect class="cls-2" x="99.21" y="42.52" width="141.73" height="28.35" transform="translate(340.16 113.39) rotate(180)"/></svg>