<svg id="Ebene_1" data-name="Ebene 1" xmlns="http://www.w3.org/2000/svg" viewBox="0 0 425.2 425.2"><defs><style>.cls-1{fill:#878787;}.cls-1,.cls-2{stroke:#1d1d1b;stroke-miterlimit:10;stroke-width:4px;}.cls-2{fill:#e6e000;}</style></defs><title>Zeichenfläche 16</title><rect class="cls-1" x="255.12" y="85.04" width="85.04" height="85.04" transform="translate(595.28 255.12) rotate(-180)"/><rect class="cls-2" x="170.08" y="255.12" width="85.04" height="85.04" transform="translate(425.2 595.28) rotate(-180)"/><rect class="cls-2" x="255.12" y="255.12" width="85.04" height="85.04" transform="translate(595.28 595.28) rotate(-180)"/><rect class="cls-2" x="170.08" y="85.04" width="85.04" height="85.04" transform="translate(425.2 255.12) rotate(-180)"/><rect class="cls-2" x="170.08" y="170.08" width="85.04" height="85.04" transform="translate(425.2 425.2) rotate(-180)"/><rect class="cls-2" x="255.12" y="170.08" width="85.04" height="85.04" transform="translate(595.28 425.2) rotate(-180)"/><rect class="cls-2" x="85.04" y="85.04" width="85.04" height="85.04" transform="translate(255.12 255.12) rotate(-180)"/><rect class="cls-2" x="85.04" y="170.08" width="85.04" height="85.04" transform="translate(255.12 425.2) rotate(-180)"/><rect class="cls-1" x="85.04" y="255.12" width="85.04" height="85.04" transform="translate(255.12 595.28) rotate(-180)"/><rect class="cls-2" x="85.04" y="368.5" width="85.04" height="28.35" transform="translate(255.12 765.35) rotate(-180)"/><rect class="cls-2" x="340.16" y="113.39" width="85.04" height="28.35" transform="translate(510.24 -255.12) rotate(90)"/></svg>