<svg id="Ebene_1" data-name="Ebene 1" xmlns="http://www.w3.org/2000/svg" viewBox="0 0 283.46 283.46"><defs><style>.cls-1{fill:#fff;stroke:#575756;stroke-miterlimit:10;stroke-width:2px;}.cls-2{fill:#1d1d1b;}</style></defs><title>Pi</title><g id="OLL"><g id="blank"><rect class="cls-1" x="56.696" y="170.0808" width="56.6929" height="56.6929"/><rect class="cls-1" x="113.3889" y="170.0808" width="56.6929" height="56.6929"/><rect class="cls-1" x="170.0818" y="170.0808" width="56.6929" height="56.6929"/><rect class="cls-1" x="56.696" y="113.3879" width="56.6929" height="56.6929"/><rect class="cls-1" x="113.3889" y="113.3879" width="56.6929" height="56.6929"/><rect class="cls-1" x="170.0818" y="113.3879" width="56.6929" height="56.6929"/><rect class="cls-1" x="56.696" y="56.695" width="56.6929" height="56.6929"/><rect class="cls-1" x="113.3889" y="56.695" width="56.6929" height="56.6929"/><rect class="cls-1" x="170.0818" y="56.695" width="56.6929" height="56.6929"/></g><g id="edge"><rect class="cls-2" x="24.1128" y="80.9002" width="45.3543" height="8.5039" transform="translate(-38.3622 131.9421) rotate(-90)"/><rect class="cls-2" x="175.748" y="42.6325" width="45.3543" height="8.5039"/><rect class="cls-2" x="24.1128" y="194.286" width="45.3543" height="8.5039" transform="translate(-151.748 245.3279) rotate(-90)"/><rect class="cls-2" x="175.748" y="232.5537" width="45.3543" height="8.5039"/></g><g id="top"><rect class="cls-2" x="62.3622" y="119.1679" width="45.3543" height="45.3543"/><rect class="cls-2" x="119.0551" y="119.1679" width="45.3543" height="45.3543"/><rect class="cls-2" x="175.748" y="119.1679" width="45.3543" height="45.3543"/><rect class="cls-2" x="119.0551" y="62.475" width="45.3543" height="45.3543"/><rect class="cls-2" x="119.0551" y="175.8608" width="45.3543" height="45.3543"/></g></g></svg>