<svg id="Ebene_1" data-name="Ebene 1" xmlns="http://www.w3.org/2000/svg" viewBox="0 0 283.4646 283.4646"><defs><style>.cls-1{fill:#fff;stroke:#1d1d1b;stroke-miterlimit:10;stroke-width:4px;}.cls-2{fill:#1d1d1b;}</style></defs><title>Pi</title><g id="blank"><rect class="cls-1" x="56.6929" y="56.6929" width="56.6929" height="56.6929"/><rect class="cls-1" x="113.3858" y="56.6929" width="56.6929" height="56.6929"/><rect class="cls-1" x="170.0787" y="56.6929" width="56.6929" height="56.6929"/><rect class="cls-1" x="56.6929" y="113.3858" width="56.6929" height="56.6929"/><rect class="cls-1" x="113.3858" y="113.3858" width="56.6929" height="56.6929"/><rect class="cls-1" x="170.0787" y="113.3858" width="56.6929" height="56.6929"/><rect class="cls-1" x="56.6929" y="170.0787" width="56.6929" height="56.6929"/><rect class="cls-1" x="113.3858" y="170.0787" width="56.6929" height="56.6929"/><rect class="cls-1" x="170.0787" y="170.0787" width="56.6929" height="56.6929"/></g><g id="edge"><rect class="cls-2" x="24.0945" y="194.1732" width="45.3543" height="8.5039" transform="translate(245.1969 151.6535) rotate(90)"/><rect class="cls-2" x="175.748" y="232.441" width="45.3543" height="8.5039"/><rect class="cls-2" x="24.0945" y="80.7874" width="45.3543" height="8.5039" transform="translate(-38.2677 131.811) rotate(-90)"/><rect class="cls-2" x="175.748" y="42.5197" width="45.3543" height="8.5039" transform="translate(396.8504 93.5433) rotate(180)"/></g><g id="top"><rect class="cls-2" x="119.0551" y="62.3622" width="45.3543" height="45.3543" transform="translate(56.6929 226.7717) rotate(-90)"/><rect class="cls-2" x="119.0551" y="119.0551" width="45.3543" height="45.3543" transform="translate(0 283.4646) rotate(-90)"/><rect class="cls-2" x="175.748" y="119.0551" width="45.3543" height="45.3543" transform="translate(56.6929 340.1575) rotate(-90)"/><rect class="cls-2" x="119.0551" y="175.748" width="45.3543" height="45.3543" transform="translate(-56.6929 340.1575) rotate(-90)"/><rect class="cls-2" x="62.3622" y="119.0551" width="45.3543" height="45.3543" transform="translate(-56.6929 226.7717) rotate(-90)"/></g></svg>