<svg id="Ebene_1" data-name="Ebene 1" xmlns="http://www.w3.org/2000/svg" viewBox="0 0 283.4646 283.4646"><defs><style>.cls-1{fill:#1d1d1b;}</style></defs><title>Zeichenfläche 3</title><g id="arrow"><path class="cls-1" d="M120.6115,137.2876c-3.1152,0-4.4805,2.87-4.7256,5.0054h8.9961C124.9162,140.333,124.0764,137.2876,120.6115,137.2876Z"/><path class="cls-1" d="M97.4074,131.0571a17.28,17.28,0,0,0-3.57.315v18.622a19.26,19.26,0,0,0,3.08.1748c6.5107,0,10.0459-3.6406,10.0459-10.0112C106.9982,134.5923,103.8478,131.0571,97.4074,131.0571Z"/><path class="cls-1" d="M143.6408,147.5791a2.7253,2.7253,0,0,0,2.9053,2.9395,4.2151,4.2151,0,0,0,4.0957-2.835,3.2273,3.2273,0,0,0,.1748-.9805v-2.9394C147.4562,143.6934,143.6408,144.2881,143.6408,147.5791Z"/><path class="cls-1" d="M62.3622,119.0551v45.3543h158.74V119.0551Zm44.3909,30.1685c-2.2051,2.2051-5.8457,3.3955-10.4316,3.3955a48.9849,48.9849,0,0,1-5.53-.28V129.1318a43.6,43.6,0,0,1,6.4756-.49c4.376,0,7.4912,1.0151,9.5566,2.94,2.1,1.9253,3.3252,4.6553,3.3252,8.4707A12.4773,12.4773,0,0,1,106.7531,149.2236Zm20.999-4.7256H115.8508c.07,4.1661,2.73,5.8809,5.81,5.8809a11.1371,11.1371,0,0,0,4.69-.875l.5254,2.2051a13.72,13.72,0,0,1-5.6357,1.05c-5.2158,0-8.3311-3.43-8.3311-8.54s3.0108-9.1363,7.9463-9.1363c5.53,0,7,4.8653,7,7.981A11.58,11.58,0,0,1,127.7521,144.498Zm11.3741-9.0307v2.3452h-4.0948v14.5967h-3.0459V137.8125h-2.38v-2.3452h2.38v-.8052c0-2.38.5254-4.55,1.96-5.9155a5.895,5.895,0,0,1,4.1309-1.5752,7.1391,7.1391,0,0,1,2.625.49l-.42,2.38a4.5983,4.5983,0,0,0-1.96-.3853c-2.625,0-3.29,2.31-3.29,4.9v.91Zm12.1455,16.9419-.2451-2.1348h-.1055a6.3094,6.3094,0,0,1-5.1807,2.5195,4.8262,4.8262,0,0,1-5.18-4.8652c0-4.0957,3.64-6.3354,10.1856-6.3008v-.35c0-1.4-.3848-3.92-3.8506-3.92a8.4419,8.4419,0,0,0-4.41,1.26l-.7-2.03a10.5149,10.5149,0,0,1,5.5655-1.5049c5.1806,0,6.44,3.5352,6.44,6.9307v6.3354a23.8539,23.8539,0,0,0,.28,4.0606Zm19.0752,0-.1748-2.7656h-.07a6.3728,6.3728,0,0,1-5.6,3.15c-2.66,0-5.8457-1.47-5.8457-7.4209v-9.9057h3.08v9.3813c0,3.22.9805,5.3907,3.78,5.3907a4.3345,4.3345,0,0,0,4.3408-4.376v-10.396h3.08v12.3218c0,1.75.0352,3.29.1406,4.62Zm10.7793,0h-3.08V127.5566h3.08Zm13.3-14.5967h-4.41v9.1357c0,2.1006.5947,3.2911,2.3106,3.2911a6.8812,6.8812,0,0,0,1.7851-.21l.14,2.31a7.5385,7.5385,0,0,1-2.7305.42,4.27,4.27,0,0,1-3.3252-1.2949c-.875-.91-1.19-2.4151-1.19-4.41v-9.2412H184.38v-2.3452h2.625v-4.06l3.0107-.8051v4.8652h4.41Z"/></g></svg>