<svg id="Ebene_1" data-name="Ebene 1" xmlns="http://www.w3.org/2000/svg" viewBox="0 0 283.4646 283.4646"><defs><style>.cls-1,.cls-3{fill:#706f6f;}.cls-1,.cls-2{stroke:#1d1d1b;stroke-miterlimit:10;stroke-width:4px;}.cls-2,.cls-6{fill:#4b7abd;}.cls-4{fill:#1d1d1b;}.cls-5{fill:#e94b3e;}</style></defs><title>SL 1</title><g id="blank"><rect class="cls-1" x="161.5748" y="161.5748" width="37.7953" height="37.7953"/><rect class="cls-2" x="199.3701" y="161.5748" width="37.7953" height="37.7953"/><rect class="cls-1" x="237.1654" y="161.5748" width="37.7953" height="37.7953"/><rect class="cls-2" x="161.5748" y="199.3701" width="37.7953" height="37.7953"/><rect class="cls-2" x="199.3701" y="199.3701" width="37.7953" height="37.7953"/><rect class="cls-1" x="237.1654" y="199.3701" width="37.7953" height="37.7953"/><rect class="cls-2" x="161.5748" y="237.1653" width="37.7953" height="37.7953"/><rect class="cls-2" x="199.3701" y="237.1653" width="37.7953" height="37.7953"/><rect class="cls-2" x="237.1654" y="237.1653" width="37.7953" height="37.7953"/></g><polygon class="cls-3" points="83.15 94.121 105.699 81.103 105.699 107.14 83.15 120.157 83.15 94.121"/><path class="cls-4" d="M104.6986,82.8346v23.7275L84.15,118.4259V94.6982l20.5487-11.8636m2-3.4641L82.15,93.5435V121.89l24.5487-14.1732V79.3705Z"/><polygon class="cls-3" points="132.247 65.775 154.796 52.756 154.796 78.793 132.247 91.811 132.247 65.775"/><path class="cls-4" d="M153.7959,54.4881V78.2158L133.2472,90.08V66.3519l20.5487-11.8638m2-3.4641L131.2472,65.1973V93.5436l24.5487-14.1731V51.024Z"/><polygon class="cls-3" points="107.699 79.948 130.247 66.93 130.247 92.966 107.699 105.985 107.699 79.948"/><path class="cls-4" d="M129.2472,68.6614V92.3889l-20.5486,11.8638V80.5251l20.5486-11.8637m2-3.4641L106.6986,79.3705v28.3463l24.5486-14.1732V65.1973Z"/><polygon class="cls-3" points="83.15 122.467 105.699 109.45 105.699 135.486 83.15 148.504 83.15 122.467"/><path class="cls-4" d="M104.6986,111.1809v23.7275L84.15,146.7722V123.0447l20.5487-11.8638m2-3.4641L82.15,121.89v28.3463l24.5487-14.1732V107.7168Z"/><polygon class="cls-5" points="132.247 94.121 154.796 81.103 154.796 107.14 132.247 120.157 132.247 94.121"/><path class="cls-4" d="M153.7959,82.8346v23.7275l-20.5487,11.8638V94.6982l20.5487-11.8636m2-3.4641-24.5487,14.173V121.89l24.5487-14.1732V79.3705Z"/><polygon class="cls-5" points="107.699 108.294 130.247 95.276 130.247 121.313 107.699 134.33 107.699 108.294"/><path class="cls-4" d="M129.2472,97.0077v23.7276L108.6986,132.599V108.8714l20.5486-11.8637m2-3.4641-24.5486,14.1732v28.3463L131.2472,121.89V93.5436Z"/><polygon class="cls-5" points="83.15 150.813 105.699 137.796 105.699 163.832 83.15 176.851 83.15 150.813"/><path class="cls-4" d="M104.6986,139.5272v23.7277L84.15,175.1185V151.391l20.5487-11.8638m2-3.4641L82.15,150.2363v28.3463L106.6986,164.41V136.0631Z"/><polygon class="cls-5" points="107.699 136.64 130.247 123.622 130.247 149.66 107.699 162.677 107.699 136.64"/><path class="cls-4" d="M129.2472,125.3541v23.7276l-20.5486,11.8637V137.2178l20.5486-11.8637m2-3.4641-24.5486,14.1731V164.41l24.5486-14.1732V121.89Z"/><polygon class="cls-5" points="132.247 122.467 154.796 109.45 154.796 135.486 132.247 148.504 132.247 122.467"/><path class="cls-4" d="M153.7959,111.1809v23.7275l-20.5487,11.8638V123.0447l20.5487-11.8638m2-3.4641L131.2472,121.89v28.3463l24.5487-14.1732V107.7168Z"/><polygon class="cls-3" points="58.601 107.14 58.601 81.103 81.15 94.121 81.15 120.157 58.601 107.14"/><path class="cls-4" d="M59.6013,82.8346,80.15,94.6982v23.7277L59.6013,106.5621V82.8346m-2-3.4641v28.3463L82.15,121.89V93.5435L57.6013,79.3705Z"/><polygon class="cls-3" points="59.601 79.37 82.15 66.352 104.699 79.37 82.15 92.39 59.601 79.37"/><path class="cls-4" d="M82.15,67.5067l20.5487,11.8638L82.15,91.2341,61.6013,79.3705,82.15,67.5067m0-2.3095L57.6013,79.3705,82.15,93.5435l24.5487-14.173L82.15,65.1972Z"/><polygon class="cls-3" points="108.699 51.024 131.247 38.005 153.796 51.024 131.247 64.043 108.699 51.024"/><path class="cls-4" d="M131.2472,39.16,151.7959,51.024,131.2472,62.8878,110.6986,51.024,131.2472,39.16m0-2.3095L106.6986,51.024l24.5486,14.1733L155.7959,51.024,131.2472,36.8509Z"/><polygon class="cls-3" points="84.15 65.198 106.699 52.178 129.247 65.198 106.699 78.216 84.15 65.198"/><path class="cls-4" d="M106.6986,53.3335l20.5487,11.8638L106.6986,77.061,86.15,65.1973l20.5487-11.8638m0-2.3095L82.15,65.1973l24.5487,14.1732,24.5486-14.1732L106.6986,51.024Z"/><polygon class="cls-5" points="35.053 65.197 57.601 52.179 80.15 65.197 57.601 78.216 35.053 65.197"/><path class="cls-4" d="M57.6013,53.3335,78.15,65.1972,57.6013,77.061,37.0526,65.1972,57.6013,53.3335m0-2.3095L33.0526,65.1972,57.6013,79.3705,82.15,65.1972,57.6013,51.024Z"/><polygon class="cls-3" points="84.15 36.851 106.699 23.832 129.247 36.851 106.699 49.869 84.15 36.851"/><path class="cls-4" d="M106.6986,24.9872l20.5486,11.8637L106.6986,48.7146,86.15,36.8509l20.5487-11.8637m0-2.3095L82.15,36.8509,106.6986,51.024l24.5486-14.1731L106.6986,22.6777Z"/><polygon class="cls-3" points="59.601 51.024 82.15 38.005 104.699 51.024 82.15 64.043 59.601 51.024"/><path class="cls-4" d="M82.15,39.16,102.6986,51.024,82.15,62.8878,61.6013,51.024,82.15,39.16m0-2.3095L57.6013,51.024,82.15,65.1973,106.6986,51.024,82.15,36.8509Z"/><polygon class="cls-3" points="10.504 51.024 33.053 38.005 55.601 51.024 33.053 64.043 10.504 51.024"/><path class="cls-4" d="M33.0526,39.16,53.6013,51.024,33.0526,62.8878,12.5039,51.024,33.0526,39.16m0-2.3095L8.5039,51.024,33.0526,65.1973,57.6013,51.024,33.0526,36.8509Z"/><polygon class="cls-3" points="35.053 36.851 57.601 23.832 80.15 36.851 57.601 49.869 35.053 36.851"/><path class="cls-4" d="M57.6013,24.9872,78.15,36.8509,57.6013,48.7146,37.0526,36.8509,57.6013,24.9872m0-2.3095L33.0526,36.8509,57.6013,51.024,82.15,36.8509,57.6013,22.6777Z"/><polygon class="cls-3" points="9.504 78.793 9.504 52.756 32.053 65.775 32.053 91.811 9.504 78.793"/><path class="cls-4" d="M10.5039,54.4881,31.0526,66.3519V90.08L10.5039,78.2158V54.4881m-2-3.4641V79.3705L33.0526,93.5436V65.1973L8.5039,51.024Z"/><polygon class="cls-6" points="34.053 92.967 34.053 66.93 56.601 79.947 56.601 105.984 34.053 92.967"/><path class="cls-4" d="M35.0526,68.6613,55.6013,80.5251v23.7276L35.0526,92.3889V68.6613m-2-3.4641V93.5435l24.5487,14.1733V79.3705L33.0526,65.1972Z"/><polygon class="cls-3" points="58.601 135.486 58.601 109.45 81.15 122.467 81.15 148.504 58.601 135.486"/><path class="cls-4" d="M59.6013,111.1809,80.15,123.0447v23.7275L59.6013,134.9084V111.1809m-2-3.4641v28.3463L82.15,150.2363V121.89L57.6013,107.7168Z"/><polygon class="cls-6" points="34.053 121.313 34.053 95.276 56.601 108.294 56.601 134.33 34.053 121.313"/><path class="cls-4" d="M35.0526,97.0077l20.5487,11.8637V132.599L35.0526,120.7353V97.0077m-2-3.4641V121.89l24.5487,14.1731V107.7168L33.0526,93.5436Z"/><polygon class="cls-6" points="9.504 107.14 9.504 81.103 32.053 94.121 32.053 120.157 9.504 107.14"/><path class="cls-4" d="M10.5039,82.8346,31.0526,94.6982v23.7277L10.5039,106.5621V82.8346m-2-3.4641v28.3463L33.0526,121.89V93.5435L8.5039,79.3705Z"/><polygon class="cls-6" points="58.601 163.832 58.601 137.796 81.15 150.813 81.15 176.851 58.601 163.832"/><path class="cls-4" d="M59.6013,139.5272,80.15,151.391v23.7275L59.6013,163.2549V139.5272m-2-3.4641V164.41L82.15,178.5826V150.2363L57.6013,136.0631Z"/><polygon class="cls-6" points="34.053 149.66 34.053 123.622 56.601 136.64 56.601 162.677 34.053 149.66"/><path class="cls-4" d="M35.0526,125.3541l20.5487,11.8637v23.7276L35.0526,149.0817V125.3541m-2-3.4641v28.3463L57.6013,164.41V136.0631L33.0526,121.89Z"/><polygon class="cls-6" points="9.504 135.486 9.504 109.45 32.053 122.467 32.053 148.504 9.504 135.486"/><path class="cls-4" d="M10.5039,111.1809l20.5487,11.8638v23.7275L10.5039,134.9084V111.1809m-2-3.4641v28.3463l24.5487,14.1732V121.89L8.5039,107.7168Z"/><polygon class="cls-3" points="59.601 22.678 82.15 9.659 104.699 22.678 82.15 35.697 59.601 22.678"/><path class="cls-4" d="M82.15,10.8133l20.5483,11.8644L82.15,34.5415,61.6012,22.6777,82.15,10.8133m0-2.3094L57.6013,22.6777,82.15,36.8509l24.5487-14.1732L82.15,8.5039Z"/></svg>