<svg id="Ebene_1" data-name="Ebene 1" xmlns="http://www.w3.org/2000/svg" viewBox="0 0 283.46 283.46"><defs><style>.cls-1{fill:#fff;stroke:#575756;stroke-miterlimit:10;stroke-width:2px;}.cls-2{fill:#1d1d1b;}</style></defs><title>default-overlay</title><g id="default-overlay"><g id="blank"><rect class="cls-1" x="56.696" y="56.696" width="56.6929" height="56.6929"/><rect class="cls-1" x="113.3889" y="56.696" width="56.6929" height="56.6929"/><rect class="cls-1" x="170.0818" y="56.696" width="56.6929" height="56.6929"/><rect class="cls-1" x="56.696" y="113.3889" width="56.6929" height="56.6929"/><rect class="cls-1" x="113.3889" y="113.3889" width="56.6929" height="56.6929"/><rect class="cls-1" x="170.0818" y="113.3889" width="56.6929" height="56.6929"/><rect class="cls-1" x="56.696" y="170.0818" width="56.6929" height="56.6929"/><rect class="cls-1" x="113.3889" y="170.0818" width="56.6929" height="56.6929"/><rect class="cls-1" x="170.0818" y="170.0818" width="56.6929" height="56.6929"/></g><g id="edge"><rect class="cls-2" x="24.0976" y="194.1763" width="45.3543" height="8.5039" transform="translate(245.2031 151.6535) rotate(90)"/><rect class="cls-2" x="62.3653" y="232.444" width="45.3543" height="8.5039"/><rect class="cls-2" x="118.0551" y="232.443" width="45.3543" height="8.5039"/><rect class="cls-2" x="24.0966" y="137.4834" width="45.3543" height="8.5039" transform="translate(188.5091 94.9617) rotate(90)"/><rect class="cls-2" x="175.7511" y="232.444" width="45.3543" height="8.5039"/><rect class="cls-2" x="24.0976" y="80.7905" width="45.3543" height="8.5039" transform="translate(131.8172 38.2677) rotate(90)"/><rect class="cls-2" x="62.3653" y="42.5228" width="45.3543" height="8.5039"/><rect class="cls-2" x="118.0551" y="42.5218" width="45.3543" height="8.5039"/><rect class="cls-2" x="175.7511" y="42.5228" width="45.3543" height="8.5039"/><rect class="cls-2" x="214.0199" y="194.1763" width="45.3543" height="8.5039" transform="translate(435.1253 -38.2687) rotate(90)"/><rect class="cls-2" x="214.0189" y="137.4834" width="45.3543" height="8.5039" transform="translate(378.4314 -94.9606) rotate(90)"/><rect class="cls-2" x="214.0199" y="80.7905" width="45.3543" height="8.5039" transform="translate(321.7395 -151.6546) rotate(90)"/></g><g id="arrow"><path class="cls-2" d="M171.2555,138.79c-1.78,0-2.5605,1.64-2.7,2.86h5.1406C173.7165,140.53,173.236,138.79,171.2555,138.79Z"/><path class="cls-2" d="M149.5153,135.1491c-2.8808,0-4.3213,2.66-4.3213,5.6211,0,2.88,1.5606,5.4609,4.3018,5.4609,2.76,0,4.32-2.541,4.32-5.6015C153.8161,137.9489,152.4157,135.1491,149.5153,135.1491Z"/><path class="cls-2" d="M108.8356,144.6706a1.5576,1.5576,0,0,0,1.66,1.6806,2.4086,2.4086,0,0,0,2.34-1.62,1.8278,1.8278,0,0,0,.1006-.56V142.49C111.0153,142.45,108.8356,142.7907,108.8356,144.6706Z"/><path class="cls-2" d="M95.6764,138.79c-1.78,0-2.5605,1.64-2.7,2.86h5.1407C98.1374,140.53,97.6569,138.79,95.6764,138.79Z"/><path class="cls-2" d="M82.4167,135.2292a9.854,9.854,0,0,0-2.04.18v10.6425a10.99,10.99,0,0,0,1.7608.1c3.7207,0,5.7412-2.08,5.7412-5.7217C87.8981,137.2487,86.0973,135.2292,82.4167,135.2292Z"/><path class="cls-2" d="M189.9147,144.6706a1.5576,1.5576,0,0,0,1.66,1.6806,2.4086,2.4086,0,0,0,2.34-1.62,1.8278,1.8278,0,0,0,.1006-.56V142.49C192.0944,142.45,189.9147,142.7907,189.9147,144.6706Z"/><path class="cls-2" d="M65.2,121.8929v36.85H218.2708v-36.85ZM87.7585,145.611c-1.2608,1.26-3.3408,1.94-5.9619,1.94a28.1759,28.1759,0,0,1-3.16-.16V134.1286a24.8928,24.8928,0,0,1,3.7-.28c2.501,0,4.2813.58,5.4619,1.6807a6.2085,6.2085,0,0,1,1.9,4.8408A7.1337,7.1337,0,0,1,87.7585,145.611Zm11.999-2.7H92.9557a3.1019,3.1019,0,0,0,3.32,3.36,6.3623,6.3623,0,0,0,2.6806-.5l.3008,1.26a7.8376,7.8376,0,0,1-3.2207.6006c-2.9805,0-4.7617-1.9609-4.7617-4.8808s1.7207-5.2217,4.541-5.2217c3.1611,0,4.001,2.7812,4.001,4.5615A6.7834,6.7834,0,0,1,99.7575,142.9108Zm6.499-5.1611v1.34h-2.3408v8.3418h-1.74V139.09h-1.36v-1.34h1.36v-.461a4.56,4.56,0,0,1,1.12-3.38,3.3654,3.3654,0,0,1,2.36-.9,4.0666,4.0666,0,0,1,1.5.28l-.2392,1.3594a2.6511,2.6511,0,0,0-1.1211-.22c-1.5,0-1.88,1.32-1.88,2.8008v.52Zm6.9395,9.6816-.14-1.2207h-.06a3.6039,3.6039,0,0,1-2.96,1.4405,2.7581,2.7581,0,0,1-2.9609-2.78c0-2.3408,2.08-3.6211,5.8213-3.6006v-.2a1.9957,1.9957,0,0,0-2.2-2.24,4.819,4.819,0,0,0-2.52.72l-.4-1.16a6.003,6.003,0,0,1,3.1806-.86c2.961,0,3.6807,2.02,3.6807,3.9609v3.6211a13.6128,13.6128,0,0,0,.16,2.32Zm10.9,0-.1006-1.58h-.04a3.6419,3.6419,0,0,1-3.2,1.8c-1.52,0-3.3408-.84-3.3408-4.24V137.75h1.7608v5.36c0,1.8409.5595,3.0811,2.16,3.0811a2.5455,2.5455,0,0,0,2.32-1.6006,2.5832,2.5832,0,0,0,.16-.9v-5.94h1.7607v7.041c0,1,.02,1.8809.0791,2.6406Zm6.1582,0h-1.7608V133.2282h1.7608Zm7.6006-8.3418h-2.5206V144.31c0,1.2012.34,1.8809,1.32,1.8809a3.8868,3.8868,0,0,0,1.0195-.12l.08,1.32a4.3148,4.3148,0,0,1-1.56.24,2.4377,2.4377,0,0,1-1.9-.74,3.5824,3.5824,0,0,1-.6807-2.52V139.09h-1.5v-1.34h1.5v-2.3213l1.7207-.46V137.75h2.5206Zm11.54,8.5616c-3.5606,0-6.0615-2.7608-6.0615-6.8409,0-4.2812,2.6611-7.082,6.2617-7.082,3.6807,0,6.0615,2.82,6.0615,6.8213C155.6569,145.1911,152.8366,147.6511,149.3952,147.6511Zm12.8994-.22h-1.6807l-3.6806-9.6816h1.8808l1.9,5.44a24.97,24.97,0,0,1,.78,2.4805h.06c.2207-.8.5-1.6.82-2.4805l1.8808-5.44h1.84Zm13.042-4.52h-6.8018a3.1021,3.1021,0,0,0,3.3213,3.36,6.3608,6.3608,0,0,0,2.68-.5l.3008,1.26a7.8376,7.8376,0,0,1-3.2207.6006c-2.9805,0-4.7617-1.9609-4.7617-4.8808s1.7207-5.2217,4.541-5.2217c3.1611,0,4.001,2.7812,4.001,4.5615A6.7834,6.7834,0,0,1,175.3366,142.9108Zm7.0186-3.6611a2.6353,2.6353,0,0,0-.6-.0606,2.4707,2.4707,0,0,0-2.3613,2.2608,4.9674,4.9674,0,0,0-.0791.82v5.1611h-1.7412V140.77c0-1.1406-.02-2.1211-.08-3.02h1.541l.06,1.9h.08a2.9049,2.9049,0,0,1,2.6807-2.1211,1.9027,1.9027,0,0,1,.5.06Zm3.6,8.1816H184.194V133.2282h1.7608Zm8.32,0-.14-1.2207h-.06a3.6039,3.6039,0,0,1-2.96,1.4405,2.7581,2.7581,0,0,1-2.9609-2.78c0-2.3408,2.08-3.6211,5.8213-3.6006v-.2a1.9957,1.9957,0,0,0-2.2-2.24,4.819,4.819,0,0,0-2.52.72l-.4-1.16a6.003,6.003,0,0,1,3.1806-.86c2.961,0,3.6807,2.02,3.6807,3.9609v3.6211a13.6128,13.6128,0,0,0,.16,2.32Zm9.3-2.78c-1.2608,3.32-2.1211,5.02-3.3213,6.06a4.7608,4.7608,0,0,1-2.16,1.1406l-.44-1.48a4.649,4.649,0,0,0,1.541-.86,5.3421,5.3421,0,0,0,1.4805-1.96,1.2578,1.2578,0,0,0,.14-.42,1.5257,1.5257,0,0,0-.12-.46l-3.581-8.9219h1.9209l2.12,5.7207c.2207.6406.46,1.4.62,1.98h.04c.1807-.58.38-1.32.62-2.02l1.9209-5.6807h1.86Z"/></g></g></svg>