<svg id="Ebene_1" data-name="Ebene 1" xmlns="http://www.w3.org/2000/svg" viewBox="0 0 680.31 680.31"><defs><style>.cls-1{fill:#fff;}.cls-1,.cls-3{stroke:#1d1d1b;stroke-miterlimit:10;stroke-width:8px;}.cls-2,.cls-3{fill:#1d1d1b;}</style></defs><title>Aa-Perm</title><rect class="cls-1" x="254.92" y="255.12" width="170.08" height="170.08" transform="translate(679.92 680.31) rotate(-180)"/><rect class="cls-1" x="425.2" y="425.2" width="170.08" height="170.08" transform="translate(1020.47 1020.47) rotate(-180)"/><rect class="cls-1" x="425.2" y="255.12" width="170.08" height="170.08" transform="translate(850.39 -170.08) rotate(90)"/><rect class="cls-2" x="552.76" y="496.06" width="141.73" height="28.35" transform="translate(1133.86 -113.39) rotate(90)"/><rect class="cls-2" x="269.29" y="609.45" width="141.73" height="28.35" transform="translate(680.31 1247.24) rotate(180)"/><rect class="cls-2" x="439.37" y="609.45" width="141.73" height="28.35" transform="translate(1020.47 1247.24) rotate(180)"/><rect class="cls-2" x="552.76" y="325.98" width="141.73" height="28.35" transform="translate(963.78 -283.46) rotate(90)"/><rect class="cls-2" x="-14.17" y="325.98" width="141.73" height="28.35" transform="translate(396.85 283.46) rotate(90)"/><rect class="cls-1" x="425.2" y="85.04" width="170.08" height="170.08" transform="translate(1020.47 340.16) rotate(-180)"/><polygon class="cls-3" points="530.99 119.97 581.1 170.08 530.99 220.19 530.99 119.97"/><rect class="cls-1" x="85.04" y="425.2" width="170.08" height="170.08"/><polygon class="cls-3" points="198.43 552.76 127.56 552.76 127.56 481.89 198.43 552.76"/><line class="cls-1" x1="155.91" y1="524.41" x2="453.54" y2="226.77"/><polygon class="cls-3" points="198.43 552.76 127.56 552.76 127.56 481.89 198.43 552.76"/><rect class="cls-1" x="255.12" y="85.04" width="170.08" height="170.08" transform="translate(510.24 -170.08) rotate(90)"/><rect class="cls-2" x="269.29" y="42.52" width="141.73" height="28.35" transform="translate(680.31 113.39) rotate(180)"/><rect class="cls-1" x="85.04" y="85.04" width="170.08" height="170.08" transform="translate(340.16 0) rotate(90)"/><polygon class="cls-3" points="220.19 149.32 170.08 99.21 119.97 149.32 220.19 149.32"/><rect class="cls-1" x="85.04" y="255.12" width="170.08" height="170.08" transform="translate(340.16 680.31) rotate(-180)"/><line class="cls-1" x1="170.08" y1="141.73" x2="170.08" y2="453.54"/><line class="cls-1" x1="538.58" y1="170.08" x2="226.77" y2="170.08"/><rect class="cls-1" x="255.12" y="425.2" width="170.08" height="170.08" transform="translate(680.31 1020.47) rotate(-180)"/></svg>