<svg id="Ebene_1" data-name="Ebene 1" xmlns="http://www.w3.org/2000/svg" viewBox="0 0 283.46 283.46"><defs><style>.cls-1{fill:#fff;stroke:#575756;stroke-miterlimit:10;stroke-width:2px;}.cls-2{fill:#1d1d1b;}</style></defs><title>Aa-Perm</title><g id="Aa-Perm"><g id="blank"><rect class="cls-1" x="170.087" y="56.6929" width="56.6929" height="56.6929" transform="translate(396.8669 170.0787) rotate(-180)"/><rect class="cls-1" x="113.3941" y="56.6929" width="56.6929" height="56.6929" transform="translate(283.4811 170.0787) rotate(-180)"/><rect class="cls-1" x="56.7012" y="56.6929" width="56.6929" height="56.6929" transform="translate(170.0953 170.0787) rotate(-180)"/><rect class="cls-1" x="170.087" y="113.3858" width="56.6929" height="56.6929" transform="translate(396.8669 283.4646) rotate(-180)"/><rect class="cls-1" x="113.3941" y="113.3858" width="56.6929" height="56.6929" transform="translate(283.4811 283.4646) rotate(-180)"/><rect class="cls-1" x="56.7012" y="113.3858" width="56.6929" height="56.6929" transform="translate(170.0953 283.4646) rotate(-180)"/><rect class="cls-1" x="170.087" y="170.0787" width="56.6929" height="56.6929" transform="translate(396.8669 396.8504) rotate(-180)"/><rect class="cls-1" x="113.3941" y="170.0787" width="56.6929" height="56.6929" transform="translate(283.4811 396.8504) rotate(-180)"/><rect class="cls-1" x="56.7012" y="170.0787" width="56.6929" height="56.6929" transform="translate(170.0953 396.8504) rotate(-180)"/></g><g id="edge"><rect class="cls-2" x="214.0199" y="194.1732" width="45.3543" height="8.5039" transform="translate(435.1223 -38.2718) rotate(90)"/><rect class="cls-2" x="175.7522" y="232.441" width="45.3543" height="8.5039" transform="translate(396.8587 473.3858) rotate(-180)"/><rect class="cls-2" x="119.0572" y="232.442" width="45.3543" height="8.5039" transform="translate(283.4687 473.3879) rotate(-180)"/><rect class="cls-2" x="24.0966" y="137.4814" width="45.3543" height="8.5039" transform="translate(-94.9596 188.507) rotate(-90)"/><rect class="cls-2" x="214.0178" y="137.4814" width="45.3543" height="8.5039" transform="translate(378.4283 -94.9617) rotate(90)"/><rect class="cls-2" x="119.0634" y="42.5207" width="45.3543" height="8.5039"/></g><g id="arrow"><polygon class="cls-2" points="201.262 82.206 201.262 68.033 218.27 85.04 201.262 102.048 201.262 87.875 104.884 87.875 104.884 82.206 201.262 82.206"/><polygon class="cls-2" points="82.207 82.206 68.034 82.206 85.041 65.198 102.049 82.206 87.876 82.206 87.876 178.584 82.207 178.584 82.207 82.206"/><polygon class="cls-2" points="180.589 106.887 176.58 102.879 75.95 203.508 65.199 192.757 65.199 218.269 90.711 218.269 79.959 207.517 180.589 106.887"/></g></g></svg>