<svg id="Ebene_1" data-name="Ebene 1" xmlns="http://www.w3.org/2000/svg" viewBox="0 0 283.46 283.46"><defs><style>.cls-1{fill:#fff;stroke:#575756;stroke-miterlimit:10;stroke-width:2px;}.cls-2{fill:#1d1d1b;}</style></defs><title>Ab-Perm</title><g id="Ab-Perm"><g id="blank"><rect class="cls-1" x="170.087" y="170.0808" width="56.6929" height="56.6929" transform="translate(396.8669 396.8545) rotate(-180)"/><rect class="cls-1" x="113.3941" y="170.0808" width="56.6929" height="56.6929" transform="translate(283.4811 396.8545) rotate(-180)"/><rect class="cls-1" x="56.7012" y="170.0808" width="56.6929" height="56.6929" transform="translate(170.0953 396.8545) rotate(-180)"/><rect class="cls-1" x="170.087" y="113.3879" width="56.6929" height="56.6929" transform="translate(396.8669 283.4687) rotate(-180)"/><rect class="cls-1" x="113.3941" y="113.3879" width="56.6929" height="56.6929" transform="translate(283.4811 283.4687) rotate(-180)"/><rect class="cls-1" x="56.7012" y="113.3879" width="56.6929" height="56.6929" transform="translate(170.0953 283.4687) rotate(-180)"/><rect class="cls-1" x="170.087" y="56.695" width="56.6929" height="56.6929" transform="translate(396.8669 170.0829) rotate(-180)"/><rect class="cls-1" x="113.3941" y="56.695" width="56.6929" height="56.6929" transform="translate(283.4811 170.0829) rotate(-180)"/><rect class="cls-1" x="56.7012" y="56.695" width="56.6929" height="56.6929" transform="translate(170.0953 170.0829) rotate(-180)"/></g><g id="edge"><rect class="cls-2" x="214.0199" y="80.7895" width="45.3543" height="8.5039" transform="translate(151.6556 321.7385) rotate(-90)"/><rect class="cls-2" x="175.7522" y="42.5218" width="45.3543" height="8.5039" transform="translate(396.8587 93.5474) rotate(-180)"/><rect class="cls-2" x="119.0572" y="42.5207" width="45.3543" height="8.5039" transform="translate(283.4687 93.5454) rotate(-180)"/><rect class="cls-2" x="24.0966" y="137.4814" width="45.3543" height="8.5039" transform="translate(188.507 94.9596) rotate(90)"/><rect class="cls-2" x="214.0178" y="137.4814" width="45.3543" height="8.5039" transform="translate(94.9617 378.4283) rotate(-90)"/><rect class="cls-2" x="119.0634" y="232.442" width="45.3543" height="8.5039"/></g><g id="arrow"><polygon class="cls-2" points="201.262 201.261 201.262 215.434 218.27 198.426 201.262 181.418 201.262 195.592 104.884 195.592 104.884 201.261 201.262 201.261"/><polygon class="cls-2" points="82.207 201.261 68.034 201.261 85.041 218.269 102.049 201.261 87.876 201.261 87.876 104.883 82.207 104.883 82.207 201.261"/><polygon class="cls-2" points="180.589 176.579 176.58 180.588 75.95 79.958 65.199 90.71 65.199 65.198 90.711 65.198 79.959 75.949 180.589 176.579"/></g></g></svg>