<svg id="Ebene_1" data-name="Ebene 1" xmlns="http://www.w3.org/2000/svg" viewBox="0 0 680.31 680.31"><defs><style>.cls-1{fill:#fff;}.cls-1,.cls-3{stroke:#1d1d1b;stroke-miterlimit:10;stroke-width:8px;}.cls-2,.cls-3{fill:#1d1d1b;}</style></defs><title>Ab-Perm</title><rect class="cls-1" x="255.12" y="255.31" width="170.08" height="170.08" transform="translate(680.51 0.2) rotate(90)"/><rect class="cls-1" x="425.2" y="85.04" width="170.08" height="170.08" transform="translate(680.31 -340.16) rotate(90)"/><rect class="cls-1" x="255.12" y="85.04" width="170.08" height="170.08"/><rect class="cls-2" x="439.37" y="42.52" width="141.73" height="28.35"/><rect class="cls-2" x="552.76" y="325.98" width="141.73" height="28.35" transform="translate(963.78 -283.46) rotate(90)"/><rect class="cls-2" x="552.76" y="155.91" width="141.73" height="28.35" transform="translate(793.7 -453.54) rotate(90)"/><rect class="cls-2" x="269.29" y="42.52" width="141.73" height="28.35"/><rect class="cls-2" x="269.29" y="609.45" width="141.73" height="28.35"/><rect class="cls-1" x="85.04" y="425.2" width="170.08" height="170.08" transform="translate(-340.16 680.31) rotate(-90)"/><polygon class="cls-3" points="220.19 530.99 170.08 581.1 119.97 530.99 220.19 530.99"/><rect class="cls-1" x="85.04" y="85.04" width="170.08" height="170.08" transform="translate(340.16 0) rotate(90)"/><polygon class="cls-3" points="127.56 198.43 127.56 127.56 198.43 127.56 127.56 198.43"/><polygon class="cls-3" points="127.56 198.43 127.56 127.56 198.43 127.56 127.56 198.43"/><rect class="cls-1" x="85.04" y="255.12" width="170.08" height="170.08"/><rect class="cls-2" x="-14.17" y="325.98" width="141.73" height="28.35" transform="translate(396.85 283.46) rotate(90)"/><rect class="cls-1" x="425.2" y="425.2" width="170.08" height="170.08" transform="translate(1020.47 1020.47) rotate(180)"/><polygon class="cls-3" points="530.99 560.35 581.1 510.24 530.99 460.13 530.99 560.35"/><rect class="cls-1" x="255.12" y="425.2" width="170.08" height="170.08" transform="translate(850.39 170.08) rotate(90)"/><line class="cls-1" x1="538.58" y1="510.24" x2="226.77" y2="510.24"/><line class="cls-1" x1="170.08" y1="538.58" x2="170.08" y2="226.77"/><rect class="cls-1" x="425.2" y="255.12" width="170.08" height="170.08" transform="translate(850.39 -170.08) rotate(90)"/><line class="cls-1" x1="155.91" y1="155.91" x2="453.54" y2="453.54"/></svg>