<svg id="Ebene_1" data-name="Ebene 1" xmlns="http://www.w3.org/2000/svg" viewBox="0 0 680.31 680.31"><defs><style>.cls-1{fill:#fff;}.cls-1,.cls-3{stroke:#1d1d1b;stroke-miterlimit:10;stroke-width:8px;}.cls-2,.cls-3{fill:#1d1d1b;}</style></defs><title>Na-Perm</title><rect class="cls-1" x="85.04" y="85.04" width="170.08" height="170.08" transform="translate(340.16 340.16) rotate(-180)"/><rect class="cls-1" x="255.12" y="425.2" width="170.08" height="170.08" transform="translate(680.31 1020.47) rotate(-180)"/><rect class="cls-1" x="425.2" y="425.2" width="170.08" height="170.08" transform="translate(1020.47 1020.47) rotate(-180)"/><rect class="cls-2" x="-14.17" y="155.91" width="141.73" height="28.35" transform="translate(-113.39 226.77) rotate(-90)"/><rect class="cls-2" x="439.37" y="609.45" width="141.73" height="28.35" transform="translate(1020.47 1247.24) rotate(-180)"/><rect class="cls-2" x="269.29" y="609.45" width="141.73" height="28.35" transform="translate(680.31 1247.24) rotate(-180)"/><rect class="cls-1" x="85.04" y="425.2" width="170.08" height="170.08"/><polygon class="cls-3" points="198.43 552.76 127.56 552.76 127.56 481.89 198.43 552.76"/><rect class="cls-1" x="425.2" y="85.04" width="170.08" height="170.08" transform="translate(1020.47 340.16) rotate(-180)"/><polygon class="cls-3" points="481.89 127.56 552.76 127.56 552.76 198.43 481.89 127.56"/><rect class="cls-2" x="99.21" y="42.52" width="141.73" height="28.35"/><rect class="cls-2" x="552.76" y="496.06" width="141.73" height="28.35" transform="translate(1133.86 -113.39) rotate(90)"/><rect class="cls-1" x="255.12" y="255.12" width="170.08" height="170.08" transform="translate(0 680.31) rotate(-90)"/><rect class="cls-1" x="425.2" y="255.12" width="170.08" height="170.08" transform="translate(1020.47 680.31) rotate(-180)"/><polygon class="cls-3" points="530.99 290.05 581.1 340.16 530.99 390.27 530.99 290.05"/><rect class="cls-1" x="85.04" y="255.12" width="170.08" height="170.08"/><polygon class="cls-3" points="149.32 390.27 99.21 340.16 149.32 290.05 149.32 390.27"/><line class="cls-1" x1="538.58" y1="340.16" x2="141.73" y2="340.16"/><line class="cls-1" x1="524.41" y1="155.91" x2="155.91" y2="524.41"/><rect class="cls-1" x="255.12" y="85.04" width="170.08" height="170.08" transform="translate(680.31 340.16) rotate(-180)"/><rect class="cls-2" x="269.29" y="42.52" width="141.73" height="28.35"/></svg>