<svg id="Ebene_1" data-name="Ebene 1" xmlns="http://www.w3.org/2000/svg" viewBox="0 0 283.46 283.46"><defs><style>.cls-1{fill:#fff;stroke:#575756;stroke-miterlimit:10;stroke-width:2px;}.cls-2{fill:#1d1d1b;}</style></defs><title>Ra-Perm</title><g id="Ra-Perm"><g id="blank"><rect class="cls-1" x="56.696" y="170.0808" width="56.6929" height="56.6929"/><rect class="cls-1" x="113.3889" y="170.0808" width="56.6929" height="56.6929"/><rect class="cls-1" x="170.0818" y="170.0808" width="56.6929" height="56.6929"/><rect class="cls-1" x="56.696" y="113.3879" width="56.6929" height="56.6929"/><rect class="cls-1" x="113.3889" y="113.3879" width="56.6929" height="56.6929"/><rect class="cls-1" x="170.0818" y="113.3879" width="56.6929" height="56.6929"/><rect class="cls-1" x="56.696" y="56.695" width="56.6929" height="56.6929"/><rect class="cls-1" x="113.3889" y="56.695" width="56.6929" height="56.6929"/><rect class="cls-1" x="170.0818" y="56.695" width="56.6929" height="56.6929"/></g><g id="edge"><rect class="cls-2" x="24.0976" y="80.7895" width="45.3543" height="8.5039" transform="translate(-38.2667 131.8162) rotate(-90)"/><rect class="cls-2" x="62.3653" y="42.5218" width="45.3543" height="8.5039"/><rect class="cls-2" x="62.3653" y="232.443" width="45.3543" height="8.5039" transform="translate(170.0849 473.39) rotate(180)"/><rect class="cls-2" x="24.0976" y="194.1753" width="45.3543" height="8.5039" transform="translate(-151.6525 245.202) rotate(-90)"/><rect class="cls-2" x="119.0572" y="232.443" width="45.3543" height="8.5039"/><rect class="cls-2" x="214.0178" y="137.4824" width="45.3543" height="8.5039" transform="translate(94.9606 378.4293) rotate(-90)"/></g><g id="arrow"><polygon class="cls-2" points="201.26 201.26 215.433 201.26 198.425 218.268 181.417 201.26 195.591 201.26 195.591 82.205 181.417 82.205 198.425 65.197 215.433 82.205 201.26 82.205 201.26 201.26"/><polygon class="cls-2" points="90.711 161.577 65.199 161.577 65.199 136.065 75.95 146.817 146.817 75.95 136.065 65.199 161.577 65.199 161.577 90.711 150.825 79.959 79.959 150.825 90.711 161.577"/></g></g></svg>