<svg id="Ebene_1" data-name="Ebene 1" xmlns="http://www.w3.org/2000/svg" viewBox="0 0 283.4646 283.4646"><defs><style>.cls-1{fill:#fff;stroke:#1d1d1b;stroke-miterlimit:10;stroke-width:4px;}.cls-2{fill:#1d1d1b;}</style></defs><title>Ua-Perm</title><g id="blank"><rect class="cls-1" x="56.6929" y="56.6929" width="56.6929" height="56.6929"/><rect class="cls-1" x="113.3858" y="56.6929" width="56.6929" height="56.6929"/><rect class="cls-1" x="170.0787" y="56.6929" width="56.6929" height="56.6929"/><rect class="cls-1" x="56.6929" y="113.3858" width="56.6929" height="56.6929"/><rect class="cls-1" x="113.3858" y="113.3858" width="56.6929" height="56.6929"/><rect class="cls-1" x="56.6929" y="170.0787" width="56.6929" height="56.6929"/><rect class="cls-1" x="113.3858" y="170.0787" width="56.6929" height="56.6929"/><rect class="cls-1" x="170.0787" y="170.0787" width="56.6929" height="56.6929"/><rect class="cls-1" x="170.0787" y="113.3858" width="56.6929" height="56.6929"/></g><g id="edge"><rect class="cls-2" x="24.0945" y="194.1732" width="45.3543" height="8.5039" transform="translate(245.1969 151.6535) rotate(90)"/><rect class="cls-2" x="175.748" y="232.441" width="45.3543" height="8.5039"/><rect class="cls-2" x="175.748" y="42.5197" width="45.3543" height="8.5039" transform="translate(396.8504 93.5433) rotate(180)"/><rect class="cls-2" x="119.0551" y="42.5197" width="45.3543" height="8.5039" transform="translate(283.4646 93.5433) rotate(180)"/><rect class="cls-2" x="62.3622" y="42.5197" width="45.3543" height="8.5039" transform="translate(170.0787 93.5433) rotate(180)"/><rect class="cls-2" x="59.5276" y="232.441" width="45.3543" height="8.5039" transform="translate(164.4095 473.3858) rotate(180)"/><rect class="cls-2" x="214.0158" y="194.1732" width="45.3543" height="8.5039" transform="translate(38.2677 435.1181) rotate(-90)"/></g><g id="arrow"><polygon class="cls-2" points="178.583 144.567 90.709 144.567 90.709 161.575 70.866 141.732 90.709 121.89 90.709 138.898 178.583 138.898 178.583 144.567"/><polygon class="cls-2" points="158.74 177.409 196.563 139.585 184.537 127.559 212.598 127.559 212.598 155.621 200.572 143.594 162.749 181.417 158.74 177.409"/><polygon class="cls-2" points="106.056 158.74 143.879 196.563 155.906 184.537 155.906 212.598 127.844 212.598 139.87 200.572 102.047 162.749 106.056 158.74"/></g></svg>