<svg id="Ebene_1" data-name="Ebene 1" xmlns="http://www.w3.org/2000/svg" viewBox="0 0 283.46 283.46"><defs><style>.cls-1{fill:#fff;stroke:#575756;stroke-miterlimit:10;stroke-width:2px;}.cls-2{fill:#1d1d1b;}</style></defs><title>Ub-Perm</title><g id="Ub-Perm"><g id="blank"><rect class="cls-1" x="170.087" y="56.6929" width="56.6929" height="56.6929" transform="translate(396.8669 170.0787) rotate(-180)"/><rect class="cls-1" x="113.3941" y="56.6929" width="56.6929" height="56.6929" transform="translate(283.4811 170.0787) rotate(-180)"/><rect class="cls-1" x="56.7012" y="56.6929" width="56.6929" height="56.6929" transform="translate(170.0953 170.0787) rotate(-180)"/><rect class="cls-1" x="170.087" y="113.3858" width="56.6929" height="56.6929" transform="translate(396.8669 283.4646) rotate(-180)"/><rect class="cls-1" x="113.3941" y="113.3858" width="56.6929" height="56.6929" transform="translate(283.4811 283.4646) rotate(-180)"/><rect class="cls-1" x="56.7012" y="113.3858" width="56.6929" height="56.6929" transform="translate(170.0953 283.4646) rotate(-180)"/><rect class="cls-1" x="170.087" y="170.0787" width="56.6929" height="56.6929" transform="translate(396.8669 396.8504) rotate(-180)"/><rect class="cls-1" x="113.3941" y="170.0787" width="56.6929" height="56.6929" transform="translate(283.4811 396.8504) rotate(-180)"/><rect class="cls-1" x="56.7012" y="170.0787" width="56.6929" height="56.6929" transform="translate(170.0953 396.8504) rotate(-180)"/></g><g id="edge"><rect class="cls-2" x="214.0199" y="194.1732" width="45.3543" height="8.5039" transform="translate(435.1223 -38.2718) rotate(90)"/><rect class="cls-2" x="175.7522" y="232.441" width="45.3543" height="8.5039" transform="translate(396.8587 473.3858) rotate(-180)"/><rect class="cls-2" x="24.0986" y="80.7874" width="45.3543" height="8.5039" transform="translate(-38.2636 131.8152) rotate(-90)"/><rect class="cls-2" x="62.3663" y="42.5197" width="45.3543" height="8.5039"/><rect class="cls-2" x="62.3663" y="232.441" width="45.3543" height="8.5039" transform="translate(170.087 473.3858) rotate(-180)"/><rect class="cls-2" x="24.0986" y="194.1732" width="45.3543" height="8.5039" transform="translate(-151.6494 245.201) rotate(-90)"/><rect class="cls-2" x="175.7522" y="42.5197" width="45.3543" height="8.5039"/><rect class="cls-2" x="214.0199" y="80.7874" width="45.3543" height="8.5039" transform="translate(321.7364 -151.6577) rotate(90)"/><rect class="cls-2" x="119.0634" y="42.5207" width="45.3543" height="8.5039"/></g><g id="arrow"><polygon class="cls-2" points="201.268 138.899 201.268 124.725 218.276 141.733 201.268 158.741 201.268 144.568 104.89 144.568 104.89 138.899 201.268 138.899"/><polygon class="cls-2" points="132.65 203.508 176.587 159.571 180.595 163.58 136.658 207.517 147.41 218.269 121.898 218.269 121.898 192.757 132.65 203.508"/><polygon class="cls-2" points="65.205 121.891 90.717 121.891 79.965 132.642 123.902 176.579 119.894 180.588 75.957 136.651 65.205 147.403 65.205 121.891"/></g></g></svg>