<svg id="Ebene_1" data-name="Ebene 1" xmlns="http://www.w3.org/2000/svg" viewBox="0 0 283.46 283.46"><defs><style>.cls-1{fill:#fff;stroke:#575756;stroke-miterlimit:10;stroke-width:2px;}.cls-2{fill:#1d1d1b;}</style></defs><title>V-Perm</title><g id="Nb-Perm"><g id="blank"><rect class="cls-1" x="56.696" y="56.696" width="56.6929" height="56.6929"/><rect class="cls-1" x="113.3889" y="56.696" width="56.6929" height="56.6929"/><rect class="cls-1" x="170.0818" y="56.696" width="56.6929" height="56.6929"/><rect class="cls-1" x="56.696" y="113.3889" width="56.6929" height="56.6929"/><rect class="cls-1" x="113.3889" y="113.3889" width="56.6929" height="56.6929"/><rect class="cls-1" x="170.0818" y="113.3889" width="56.6929" height="56.6929"/><rect class="cls-1" x="56.696" y="170.0818" width="56.6929" height="56.6929"/><rect class="cls-1" x="113.3889" y="170.0818" width="56.6929" height="56.6929"/><rect class="cls-1" x="170.0818" y="170.0818" width="56.6929" height="56.6929"/></g><g id="edge"><rect class="cls-2" x="24.0976" y="194.1763" width="45.3543" height="8.5039" transform="translate(245.2031 151.6535) rotate(90)"/><rect class="cls-2" x="62.3653" y="232.444" width="45.3543" height="8.5039"/><rect class="cls-2" x="174.748" y="42.5218" width="45.3543" height="8.5039"/><rect class="cls-2" x="213.0158" y="80.7895" width="45.3543" height="8.5039" transform="translate(320.7344 -150.6515) rotate(90)"/><rect class="cls-2" x="118.0551" y="232.443" width="45.3543" height="8.5039"/><rect class="cls-2" x="24.0966" y="137.4834" width="45.3543" height="8.5039" transform="translate(188.5091 94.9617) rotate(90)"/></g><g id="arrow"><polygon class="cls-2" points="202.507 207.518 74.948 79.959 64.197 90.711 64.197 65.199 89.709 65.199 78.957 75.95 206.516 203.51 217.268 192.758 217.268 218.27 191.756 218.27 202.507 207.518"/><polygon class="cls-2" points="218.27 136.066 218.27 161.578 192.758 161.578 203.51 150.826 132.643 79.96 121.892 90.712 121.892 65.2 147.404 65.2 136.652 75.951 207.518 146.818 218.27 136.066"/></g></g></svg>