<svg id="Ebene_1" data-name="Ebene 1" xmlns="http://www.w3.org/2000/svg" viewBox="0 0 680.31 680.31"><defs><style>.cls-1{fill:#fff;}.cls-1,.cls-3{stroke:#1d1d1b;stroke-miterlimit:10;stroke-width:8px;}.cls-2,.cls-3{fill:#1d1d1b;}</style></defs><title>V-Perm</title><rect class="cls-1" x="425.2" y="85.04" width="170.08" height="170.08"/><rect class="cls-1" x="255.12" y="425.2" width="170.08" height="170.08"/><rect class="cls-1" x="85.04" y="425.2" width="170.08" height="170.08"/><rect class="cls-2" x="552.76" y="155.91" width="141.73" height="28.35" transform="translate(453.54 793.7) rotate(-90)"/><rect class="cls-2" x="99.21" y="609.45" width="141.73" height="28.35"/><rect class="cls-2" x="269.29" y="609.45" width="141.73" height="28.35"/><rect class="cls-1" x="425.2" y="425.2" width="170.08" height="170.08" transform="translate(1020.47 1020.47) rotate(180)"/><polygon class="cls-3" points="481.89 552.76 552.76 552.76 552.76 481.89 481.89 552.76"/><rect class="cls-1" x="85.04" y="85.04" width="170.08" height="170.08"/><polygon class="cls-3" points="198.43 127.56 127.56 127.56 127.56 198.43 198.43 127.56"/><rect class="cls-2" x="439.37" y="42.52" width="141.73" height="28.35" transform="translate(1020.47 113.39) rotate(180)"/><rect class="cls-2" x="-14.17" y="496.06" width="141.73" height="28.35" transform="translate(566.93 453.54) rotate(90)"/><rect class="cls-1" x="85.04" y="255.12" width="170.08" height="170.08" transform="translate(510.24 170.08) rotate(90)"/><rect class="cls-2" x="-14.17" y="325.98" width="141.73" height="28.35" transform="translate(396.85 283.46) rotate(90)"/><rect class="cls-1" x="255.12" y="255.12" width="170.08" height="170.08"/><rect class="cls-1" x="425.2" y="255.12" width="170.08" height="170.08" transform="translate(1020.47 680.31) rotate(180)"/><polygon class="cls-3" points="481.89 382.68 552.76 382.68 552.76 311.81 481.89 382.68"/><rect class="cls-1" x="255.12" y="85.04" width="170.08" height="170.08"/><line class="cls-1" x1="325.98" y1="155.91" x2="524.41" y2="354.33"/><polygon class="cls-3" points="368.5 127.56 297.64 127.56 297.64 198.43 368.5 127.56"/><line class="cls-1" x1="155.91" y1="155.91" x2="524.41" y2="524.41"/></svg>