<svg id="Ebene_1" data-name="Ebene 1" xmlns="http://www.w3.org/2000/svg" viewBox="0 0 283.46 283.46"><defs><style>.cls-1{fill:#fff;stroke:#575756;stroke-miterlimit:10;stroke-width:2px;}.cls-2{fill:#1d1d1b;}</style></defs><title>Y-Perm</title><g id="Y-Perm"><g id="blank"><rect class="cls-1" x="56.6929" y="56.6929" width="56.6929" height="56.6929"/><rect class="cls-1" x="113.3858" y="56.6929" width="56.6929" height="56.6929"/><rect class="cls-1" x="170.0787" y="56.6929" width="56.6929" height="56.6929"/><rect class="cls-1" x="56.6929" y="113.3858" width="56.6929" height="56.6929"/><rect class="cls-1" x="113.3858" y="113.3858" width="56.6929" height="56.6929"/><rect class="cls-1" x="170.0787" y="113.3858" width="56.6929" height="56.6929"/><rect class="cls-1" x="56.6929" y="170.0787" width="56.6929" height="56.6929"/><rect class="cls-1" x="113.3858" y="170.0787" width="56.6929" height="56.6929"/><rect class="cls-1" x="170.0787" y="170.0787" width="56.6929" height="56.6929"/></g><g id="edge"><rect class="cls-2" x="24.0945" y="194.1732" width="45.3543" height="8.5039" transform="translate(245.1969 151.6535) rotate(90)"/><rect class="cls-2" x="62.3622" y="232.441" width="45.3543" height="8.5039"/><rect class="cls-2" x="119.0551" y="232.441" width="45.3543" height="8.5039"/><rect class="cls-2" x="214.0158" y="80.7874" width="45.3543" height="8.5039" transform="translate(151.6535 321.7323) rotate(-90)"/><rect class="cls-2" x="175.748" y="42.5197" width="45.3543" height="8.5039" transform="translate(396.8504 93.5433) rotate(180)"/><rect class="cls-2" x="214.0168" y="137.4803" width="45.3543" height="8.5039" transform="translate(94.9617 378.4262) rotate(-90)"/></g><g id="arrow"><polygon class="cls-2" points="207.517 203.507 79.958 75.948 90.71 65.197 65.198 65.197 65.198 90.709 75.949 79.957 203.508 207.516 192.757 218.268 218.269 218.268 218.269 192.756 207.517 203.507"/><polygon class="cls-2" points="161.576 90.709 161.576 65.197 136.064 65.197 146.816 75.948 75.949 146.814 65.198 136.063 65.198 161.575 90.71 161.575 79.958 150.823 150.824 79.957 161.576 90.709"/></g></g></svg>