<svg id="Ebene_1" data-name="Ebene 1" xmlns="http://www.w3.org/2000/svg" viewBox="0 0 680.31 680.31"><defs><style>.cls-1{fill:#fff;}.cls-1,.cls-3{stroke:#1d1d1b;stroke-miterlimit:10;stroke-width:8px;}.cls-2,.cls-3{fill:#1d1d1b;}</style></defs><title>Z-Perm</title><rect class="cls-1" x="255.31" y="255.12" width="170.08" height="170.08"/><rect class="cls-1" x="425.2" y="425.2" width="170.08" height="170.08"/><rect class="cls-1" x="85.04" y="425.2" width="170.08" height="170.08"/><rect class="cls-1" x="85.24" y="85.04" width="170.08" height="170.08"/><rect class="cls-1" x="425.2" y="85.04" width="170.08" height="170.08" transform="translate(680.31 -340.16) rotate(90)"/><rect class="cls-2" x="99.21" y="42.52" width="141.73" height="28.35" transform="translate(340.16 113.39) rotate(180)"/><rect class="cls-2" x="439.37" y="42.52" width="141.73" height="28.35" transform="translate(1020.47 113.39) rotate(180)"/><rect class="cls-2" x="-14.17" y="155.91" width="141.73" height="28.35" transform="translate(226.77 113.39) rotate(90)"/><rect class="cls-2" x="-14.17" y="496.06" width="141.73" height="28.35" transform="translate(566.93 453.54) rotate(90)"/><rect class="cls-2" x="99.21" y="609.45" width="141.73" height="28.35" transform="translate(340.16 1247.24) rotate(180)"/><rect class="cls-2" x="439.37" y="609.45" width="141.73" height="28.35" transform="translate(1020.47 1247.24) rotate(180)"/><rect class="cls-2" x="552.76" y="155.91" width="141.73" height="28.35" transform="translate(793.7 -453.54) rotate(90)"/><rect class="cls-2" x="552.76" y="496.06" width="141.73" height="28.35" transform="translate(1133.86 -113.39) rotate(90)"/><rect class="cls-1" x="85.04" y="255.12" width="170.08" height="170.08" transform="translate(-170.08 510.24) rotate(-90)"/><polygon class="cls-3" points="127.56 311.81 127.56 382.68 198.43 382.68 127.56 311.81"/><rect class="cls-1" x="255.12" y="85.04" width="170.08" height="170.08" transform="translate(510.24 -170.08) rotate(90)"/><polygon class="cls-3" points="382.68 198.43 382.68 127.56 311.81 127.56 382.68 198.43"/><line class="cls-1" x1="354.33" y1="155.91" x2="155.91" y2="354.33"/><polygon class="cls-3" points="382.68 198.43 382.68 127.56 311.81 127.56 382.68 198.43"/><rect class="cls-1" x="255.12" y="425.2" width="170.08" height="170.08" transform="translate(-170.08 850.39) rotate(-90)"/><polygon class="cls-3" points="297.64 481.89 297.64 552.76 368.5 552.76 297.64 481.89"/><rect class="cls-1" x="425.2" y="255.12" width="170.08" height="170.08" transform="translate(850.39 -170.08) rotate(90)"/><polygon class="cls-3" points="552.76 368.5 552.76 297.64 481.89 297.64 552.76 368.5"/><line class="cls-1" x1="524.41" y1="325.98" x2="325.98" y2="524.41"/><polygon class="cls-3" points="552.76 368.5 552.76 297.64 481.89 297.64 552.76 368.5"/></svg>