<svg id="Ebene_1" data-name="Ebene 1" xmlns="http://www.w3.org/2000/svg" viewBox="0 0 283.46 283.46"><defs><style>.cls-1{fill:#fff;stroke:#575756;stroke-miterlimit:10;stroke-width:2px;}.cls-2{fill:#1d1d1b;}</style></defs><title>Z-Perm</title><g id="Z-Perm"><g id="blank"><rect class="cls-1" x="56.6929" y="56.6929" width="56.6929" height="56.6929"/><rect class="cls-1" x="113.3858" y="56.6929" width="56.6929" height="56.6929"/><rect class="cls-1" x="170.0787" y="56.6929" width="56.6929" height="56.6929"/><rect class="cls-1" x="56.6929" y="113.3858" width="56.6929" height="56.6929"/><rect class="cls-1" x="113.3858" y="113.3858" width="56.6929" height="56.6929"/><rect class="cls-1" x="170.0787" y="113.3858" width="56.6929" height="56.6929"/><rect class="cls-1" x="56.6929" y="170.0787" width="56.6929" height="56.6929"/><rect class="cls-1" x="113.3858" y="170.0787" width="56.6929" height="56.6929"/><rect class="cls-1" x="170.0787" y="170.0787" width="56.6929" height="56.6929"/></g><g id="arrow"><polygon class="cls-2" points="161.579 90.709 161.579 65.197 136.067 65.197 146.819 75.948 75.952 146.814 65.201 136.063 65.201 161.575 90.713 161.575 79.961 150.823 150.827 79.957 161.579 90.709"/><polygon class="cls-2" points="218.272 147.402 218.272 121.89 192.76 121.89 203.512 132.641 132.645 203.507 121.894 192.756 121.894 218.268 147.406 218.268 136.654 207.516 207.52 136.65 218.272 147.402"/></g><g id="edge"><rect class="cls-2" x="24.0986" y="194.1732" width="45.3543" height="8.5039" transform="translate(245.201 151.6494) rotate(90)"/><rect class="cls-2" x="62.3663" y="232.441" width="45.3543" height="8.5039"/><rect class="cls-2" x="214.0199" y="80.7874" width="45.3543" height="8.5039" transform="translate(151.6577 321.7364) rotate(-90)"/><rect class="cls-2" x="175.7522" y="42.5197" width="45.3543" height="8.5039" transform="translate(396.8587 93.5433) rotate(180)"/><rect class="cls-2" x="175.7522" y="232.441" width="45.3543" height="8.5039"/><rect class="cls-2" x="214.0199" y="194.1732" width="45.3543" height="8.5039" transform="translate(38.2718 435.1223) rotate(-90)"/><rect class="cls-2" x="62.3663" y="42.5197" width="45.3543" height="8.5039" transform="translate(170.087 93.5433) rotate(180)"/><rect class="cls-2" x="24.0986" y="80.7874" width="45.3543" height="8.5039" transform="translate(131.8152 38.2636) rotate(90)"/></g></g></svg>