<svg id="Ebene_1" data-name="Ebene 1" xmlns="http://www.w3.org/2000/svg" viewBox="0 0 283.4646 283.4646"><defs><style>.cls-1,.cls-6{fill:#e6e000;}.cls-1,.cls-2{stroke:#1d1d1b;}.cls-1,.cls-2,.cls-3{stroke-miterlimit:10;stroke-width:4px;}.cls-2,.cls-7{fill:#4b7abd;}.cls-3{fill:none;stroke:#e6007e;}.cls-4{fill:#e94b3e;}.cls-5{fill:#1d1d1b;}.cls-8{fill:#f0811a;}</style></defs><title>LL CORNER Permutation</title><g id="blank"><rect class="cls-1" x="161.5748" y="161.5748" width="37.7953" height="37.7953"/><rect class="cls-2" x="199.3701" y="161.5748" width="37.7953" height="37.7953"/><rect class="cls-2" x="237.1654" y="161.5748" width="37.7953" height="37.7953"/><rect class="cls-2" x="161.5748" y="199.3701" width="37.7953" height="37.7953"/><rect class="cls-2" x="199.3701" y="199.3701" width="37.7953" height="37.7953"/><rect class="cls-2" x="237.1654" y="199.3701" width="37.7953" height="37.7953"/><rect class="cls-2" x="161.5748" y="237.1654" width="37.7953" height="37.7953"/><rect class="cls-2" x="199.3701" y="237.1654" width="37.7953" height="37.7953"/><rect class="cls-2" x="237.1654" y="237.1654" width="37.7953" height="37.7953"/><rect class="cls-3" x="237.1654" y="161.5748" width="37.7953" height="37.7953"/></g><polygon class="cls-4" points="83.149 94.12 105.698 81.103 105.698 107.14 83.149 120.157 83.149 94.12"/><path class="cls-5" d="M104.6986,82.8345v23.7277L84.15,118.4258V94.6983l20.5487-11.8638m2-3.4641L82.15,93.5436V121.89l24.5487-14.1731V79.37Z"/><polygon class="cls-6" points="132.247 65.775 154.796 52.756 154.796 78.793 132.247 91.811 132.247 65.775"/><path class="cls-5" d="M153.7959,54.4882V78.2157L133.2472,90.08V66.352l20.5487-11.8638m2-3.4641L131.2472,65.1973V93.5436L155.7959,79.37V51.0241Z"/><polygon class="cls-4" points="107.698 79.947 130.247 66.93 130.247 92.966 107.698 105.985 107.698 79.947"/><path class="cls-5" d="M129.2472,68.6614V92.389l-20.5486,11.8637V80.5251l20.5486-11.8637m2-3.4641L106.6986,79.37v28.3464l24.5486-14.1732V65.1973Z"/><polygon class="cls-4" points="83.149 122.467 105.698 109.449 105.698 135.486 83.149 148.504 83.149 122.467"/><path class="cls-5" d="M104.6986,111.181v23.7275L84.15,146.7723V123.0446l20.5487-11.8636m2-3.4642L82.15,121.89v28.3465l24.5487-14.1732V107.7168Z"/><polygon class="cls-4" points="132.247 94.12 154.796 81.103 154.796 107.14 132.247 120.157 132.247 94.12"/><path class="cls-5" d="M153.7959,82.8345v23.7277l-20.5487,11.8636V94.6983l20.5487-11.8638m2-3.4641L131.2472,93.5436V121.89l24.5487-14.1731V79.37Z"/><polygon class="cls-4" points="107.698 108.294 130.247 95.276 130.247 121.313 107.698 134.33 107.698 108.294"/><path class="cls-5" d="M129.2472,97.0077v23.7276L108.6986,132.599V108.8715l20.5486-11.8638m2-3.4641-24.5486,14.1732v28.3464L131.2472,121.89V93.5436Z"/><polygon class="cls-4" points="83.149 150.814 105.698 137.795 105.698 163.832 83.149 176.85 83.149 150.814"/><path class="cls-5" d="M104.6986,139.5273v23.7275L84.15,175.1186V151.391l20.5487-11.8637m2-3.4641L82.15,150.2364v28.3463L106.6986,164.41V136.0632Z"/><polygon class="cls-4" points="107.698 136.64 130.247 123.622 130.247 149.659 107.698 162.677 107.698 136.64"/><path class="cls-5" d="M129.2472,125.354v23.7277l-20.5486,11.8637V137.2178l20.5486-11.8638m2-3.4641-24.5486,14.1733V164.41l24.5486-14.1731V121.89Z"/><polygon class="cls-4" points="132.247 122.467 154.796 109.449 154.796 135.486 132.247 148.504 132.247 122.467"/><path class="cls-5" d="M153.7959,111.181v23.7275l-20.5487,11.8638V123.0446l20.5487-11.8636m2-3.4642L131.2472,121.89v28.3465l24.5487-14.1732V107.7168Z"/><polygon class="cls-7" points="58.602 107.14 58.602 81.103 81.149 94.12 81.149 120.157 58.602 107.14"/><path class="cls-5" d="M59.6013,82.8345,80.15,94.6983v23.7275L59.6013,106.5622V82.8345m-2-3.4641v28.3464L82.15,121.89V93.5436L57.6013,79.37Z"/><polygon class="cls-6" points="59.602 79.37 82.149 66.352 104.698 79.37 82.149 92.389 59.602 79.37"/><path class="cls-5" d="M82.15,67.5068,102.6986,79.37,82.15,91.2342,61.6013,79.37,82.15,67.5068m0-2.3095L57.6013,79.37,82.15,93.5436,106.6986,79.37,82.15,65.1973Z"/><polygon class="cls-8" points="108.698 51.024 131.247 38.005 153.796 51.024 131.247 64.043 108.698 51.024"/><path class="cls-5" d="M131.2472,39.16l20.5487,11.8638L131.2472,62.8879,110.6986,51.0241,131.2472,39.16m0-2.3094L106.6986,51.0241l24.5486,14.1732,24.5487-14.1732L131.2472,36.8509Z"/><polygon class="cls-6" points="84.149 65.197 106.698 52.178 129.247 65.197 106.698 78.216 84.149 65.197"/><path class="cls-5" d="M106.6986,53.3335l20.5486,11.8638L106.6986,77.061,86.15,65.1973l20.5487-11.8638m0-2.3094L82.15,65.1973,106.6986,79.37l24.5486-14.1731L106.6986,51.0241Z"/><polygon class="cls-6" points="35.053 65.197 57.602 52.178 80.149 65.197 57.602 78.216 35.053 65.197"/><path class="cls-5" d="M57.6013,53.3335,78.15,65.1973,57.6013,77.061,37.0526,65.1973,57.6013,53.3335m0-2.3094L33.0526,65.1973,57.6013,79.37,82.15,65.1973,57.6013,51.0241Z"/><polygon class="cls-6" points="84.149 36.851 106.698 23.832 129.247 36.851 106.698 49.869 84.149 36.851"/><path class="cls-5" d="M106.6986,24.9872l20.5486,11.8637L106.6986,48.7146,86.15,36.8509l20.5487-11.8637m0-2.3094L82.15,36.8509l24.5487,14.1732,24.5486-14.1732L106.6986,22.6778Z"/><polygon class="cls-6" points="59.602 51.024 82.149 38.005 104.698 51.024 82.149 64.043 59.602 51.024"/><path class="cls-5" d="M82.15,39.16l20.5487,11.8638L82.15,62.8879,61.6012,51.0241,82.15,39.16m0-2.3094L57.6013,51.0241,82.15,65.1973l24.5487-14.1732L82.15,36.8509Z"/><polygon class="cls-4" points="10.504 51.024 33.053 38.005 55.602 51.024 33.053 64.043 10.504 51.024"/><path class="cls-5" d="M33.0526,39.16,53.6013,51.0241,33.0526,62.8879,12.5039,51.0241,33.0526,39.16m0-2.3094L8.5039,51.0241,33.0526,65.1973,57.6013,51.0241,33.0526,36.8509Z"/><polygon class="cls-6" points="35.053 36.851 57.602 23.832 80.149 36.851 57.602 49.869 35.053 36.851"/><path class="cls-5" d="M57.6013,24.9872,78.15,36.8509,57.6013,48.7146,37.0526,36.8509,57.6013,24.9872m0-2.3094L33.0526,36.8509,57.6013,51.0241,82.15,36.8509,57.6013,22.6778Z"/><polygon class="cls-6" points="9.504 78.793 9.504 52.756 32.053 65.775 32.053 91.811 9.504 78.793"/><path class="cls-5" d="M10.5039,54.4882,31.0526,66.352V90.08L10.5039,78.2157V54.4882m-2-3.4641V79.37L33.0526,93.5436V65.1973L8.5039,51.0241Z"/><polygon class="cls-7" points="34.053 92.966 34.053 66.93 56.602 79.947 56.602 105.985 34.053 92.966"/><path class="cls-5" d="M35.0526,68.6614,55.6013,80.5251v23.7276L35.0526,92.389V68.6614m-2-3.4641V93.5436l24.5487,14.1732V79.37L33.0526,65.1973Z"/><polygon class="cls-7" points="58.602 135.486 58.602 109.449 81.149 122.467 81.149 148.504 58.602 135.486"/><path class="cls-5" d="M59.6013,111.181,80.15,123.0446v23.7277L59.6013,134.9085V111.181m-2-3.4642v28.3464L82.15,150.2364V121.89L57.6013,107.7168Z"/><polygon class="cls-7" points="34.053 121.313 34.053 95.276 56.602 108.294 56.602 134.33 34.053 121.313"/><path class="cls-5" d="M35.0526,97.0077l20.5487,11.8638V132.599L35.0526,120.7353V97.0077m-2-3.4641V121.89l24.5487,14.1733V107.7168L33.0526,93.5436Z"/><polygon class="cls-7" points="9.504 107.14 9.504 81.103 32.053 94.12 32.053 120.157 9.504 107.14"/><path class="cls-5" d="M10.5039,82.8345,31.0526,94.6983v23.7275L10.5039,106.5622V82.8345m-2-3.4641v28.3464L33.0526,121.89V93.5436L8.5039,79.37Z"/><polygon class="cls-7" points="58.602 163.832 58.602 137.795 81.149 150.814 81.149 176.85 58.602 163.832"/><path class="cls-5" d="M59.6013,139.5273,80.15,151.391v23.7276L59.6013,163.2548V139.5273m-2-3.4641V164.41L82.15,178.5827V150.2364L57.6013,136.0632Z"/><polygon class="cls-7" points="34.053 149.659 34.053 123.622 56.602 136.64 56.602 162.677 34.053 149.659"/><path class="cls-5" d="M35.0526,125.354l20.5487,11.8638v23.7276L35.0526,149.0817V125.354m-2-3.4641v28.3465L57.6013,164.41V136.0632L33.0526,121.89Z"/><polygon class="cls-7" points="9.504 135.486 9.504 109.449 32.053 122.467 32.053 148.504 9.504 135.486"/><path class="cls-5" d="M10.5039,111.181l20.5487,11.8636v23.7277L10.5039,134.9085V111.181m-2-3.4642v28.3464l24.5487,14.1732V121.89L8.5039,107.7168Z"/><polygon class="cls-6" points="59.602 22.678 82.15 9.658 104.698 22.678 82.149 35.696 59.602 22.678"/><path class="cls-5" d="M82.15,10.8134l20.5484,11.8643L82.15,34.5414,61.6012,22.6778,82.15,10.8134m0-2.3094L57.6013,22.6778,82.15,36.8509l24.5487-14.1731L82.15,8.504Z"/><polygon class="cls-3" points="82.15 121.89 106.699 107.717 106.699 79.37 82.15 65.197 57.601 79.37 57.601 107.717 82.15 121.89"/></svg>