<svg id="Ebene_1" data-name="Ebene 1" xmlns="http://www.w3.org/2000/svg" viewBox="0 0 283.4646 283.4646"><defs><style>.cls-1,.cls-6{fill:#706f6f;}.cls-1,.cls-2,.cls-3{stroke:#1d1d1b;stroke-miterlimit:10;stroke-width:4px;}.cls-2,.cls-7{fill:#fff;}.cls-3,.cls-8{fill:#4b7abd;}.cls-4{fill:#e94b3e;}.cls-5{fill:#1d1d1b;}</style></defs><title>FL 1</title><g id="blank"><rect class="cls-1" x="161.5748" y="161.5748" width="37.7953" height="37.7953"/><rect class="cls-1" x="199.3701" y="161.5748" width="37.7953" height="37.7953"/><rect class="cls-2" x="237.1654" y="161.5748" width="37.7953" height="37.7953"/><rect class="cls-1" x="161.5748" y="199.3701" width="37.7953" height="37.7953"/><rect class="cls-3" x="199.3701" y="199.3701" width="37.7953" height="37.7953"/><rect class="cls-1" x="237.1654" y="199.3701" width="37.7953" height="37.7953"/><rect class="cls-3" x="161.5748" y="237.1654" width="37.7953" height="37.7953"/><rect class="cls-3" x="199.3701" y="237.1654" width="37.7953" height="37.7953"/><rect class="cls-1" x="237.1654" y="237.1654" width="37.7953" height="37.7953"/></g><polygon class="cls-4" points="83.15 94.121 105.698 81.103 105.698 107.139 83.15 120.158 83.15 94.121"/><path class="cls-5" d="M104.6986,82.8346V106.562L84.15,118.4259V94.6983l20.5487-11.8637m2-3.4641L82.15,93.5436V121.89l24.5487-14.1732V79.3705Z"/><polygon class="cls-6" points="132.247 65.774 154.796 52.756 154.796 78.794 132.247 91.811 132.247 65.774"/><path class="cls-5" d="M153.7959,54.4882V78.2157L133.2473,90.08V66.352l20.5486-11.8638m2-3.4641L131.2473,65.1972V93.5436l24.5486-14.1731V51.0241Z"/><polygon class="cls-6" points="107.698 79.948 130.247 66.929 130.247 92.966 107.698 105.984 107.698 79.948"/><path class="cls-5" d="M129.2473,68.6614V92.3889l-20.5487,11.8638V80.5252l20.5487-11.8638m2-3.4642L106.6986,79.3705v28.3463l24.5487-14.1732V65.1972Z"/><polygon class="cls-6" points="83.15 122.467 105.698 109.449 105.698 135.486 83.15 148.504 83.15 122.467"/><path class="cls-5" d="M104.6986,111.1809v23.7275L84.15,146.7722V123.0447l20.5487-11.8638m2-3.4641L82.15,121.89v28.3463l24.5487-14.1732V107.7168Z"/><polygon class="cls-6" points="132.247 94.121 154.796 81.103 154.796 107.139 132.247 120.158 132.247 94.121"/><path class="cls-5" d="M153.7959,82.8346V106.562l-20.5486,11.8639V94.6983l20.5486-11.8637m2-3.4641L131.2473,93.5436V121.89l24.5486-14.1732V79.3705Z"/><polygon class="cls-4" points="107.699 108.294 130.247 95.276 130.247 121.313 107.699 134.33 107.699 108.294"/><path class="cls-5" d="M129.2473,97.0078v23.7274l-20.5487,11.8639V108.8715l20.5487-11.8637m2-3.4642-24.5487,14.1732v28.3464L131.2473,121.89V93.5436Z"/><polygon class="cls-6" points="83.15 150.813 105.698 137.796 105.698 163.833 83.15 176.85 83.15 150.813"/><path class="cls-5" d="M104.6986,139.5273v23.7275L84.15,175.1186V151.391l20.5487-11.8637m2-3.4642L82.15,150.2363v28.3464L106.6986,164.41V136.0631Z"/><polygon class="cls-4" points="107.699 136.64 130.247 123.622 130.247 149.66 107.699 162.677 107.699 136.64"/><path class="cls-5" d="M129.2473,125.3541v23.7276l-20.5487,11.8637V137.2179l20.5487-11.8638m2-3.4641-24.5487,14.1732V164.41l24.5487-14.1732V121.89Z"/><polygon class="cls-4" points="132.247 122.467 154.796 109.45 154.796 135.486 132.247 148.504 132.247 122.467"/><path class="cls-5" d="M153.7959,111.1809v23.7275l-20.5486,11.8638V123.0447l20.5486-11.8638m2-3.4641L131.2473,121.89v28.3463l24.5486-14.1731V107.7168Z"/><polygon class="cls-7" points="58.601 107.139 58.601 81.103 81.15 94.121 81.15 120.158 58.601 107.139"/><path class="cls-5" d="M59.6013,82.8346,80.15,94.6983v23.7276L59.6013,106.562V82.8346m-2-3.4641v28.3463L82.15,121.89V93.5436L57.6013,79.3705Z"/><polygon class="cls-8" points="59.601 79.371 82.15 66.351 104.698 79.371 82.15 92.389 59.601 79.371"/><path class="cls-5" d="M82.15,67.5066l20.5487,11.8639L82.15,91.2342,61.6013,79.3705,82.15,67.5066m0-2.3094L57.6013,79.3705,82.15,93.5436l24.5487-14.1731L82.15,65.1972Z"/><polygon class="cls-6" points="108.698 51.024 131.247 38.005 153.796 51.024 131.247 64.043 108.698 51.024"/><path class="cls-5" d="M131.2473,39.16l20.5486,11.8638L131.2473,62.8879,110.6986,51.0241,131.2473,39.16m0-2.3094L106.6986,51.0241l24.5487,14.1731,24.5486-14.1731L131.2473,36.8509Z"/><polygon class="cls-6" points="84.15 65.197 106.698 52.178 129.247 65.197 106.698 78.216 84.15 65.197"/><path class="cls-5" d="M106.6986,53.3335l20.5487,11.8637L106.6986,77.0611,86.15,65.1972l20.5487-11.8637m0-2.3094L82.15,65.1972l24.5487,14.1733,24.5487-14.1733L106.6986,51.0241Z"/><polygon class="cls-6" points="35.052 65.197 57.601 52.178 80.15 65.197 57.601 78.216 35.052 65.197"/><path class="cls-5" d="M57.6013,53.3335,78.15,65.1972,57.6013,77.0611,37.0526,65.1972,57.6013,53.3335m0-2.3094L33.0526,65.1972,57.6013,79.3705,82.15,65.1972,57.6013,51.0241Z"/><polygon class="cls-6" points="84.15 36.851 106.698 23.832 129.247 36.851 106.698 49.87 84.15 36.851"/><path class="cls-5" d="M106.6986,24.9871l20.5487,11.8638L106.6986,48.7147,86.15,36.8509l20.5487-11.8638m0-2.3094L82.15,36.8509l24.5487,14.1732,24.5487-14.1732L106.6986,22.6777Z"/><polygon class="cls-6" points="59.601 51.024 82.15 38.005 104.698 51.024 82.15 64.043 59.601 51.024"/><path class="cls-5" d="M82.15,39.16l20.5487,11.8638L82.15,62.8879,61.6013,51.0241,82.15,39.16m0-2.3094L57.6013,51.0241,82.15,65.1972l24.5487-14.1731L82.15,36.8509Z"/><polygon class="cls-6" points="10.504 51.024 33.052 38.005 55.601 51.024 33.052 64.043 10.504 51.024"/><path class="cls-5" d="M33.0526,39.16,53.6013,51.0241,33.0526,62.8879,12.504,51.0241,33.0526,39.16m0-2.3094L8.5039,51.0241,33.0526,65.1972,57.6013,51.0241,33.0526,36.8509Z"/><polygon class="cls-6" points="35.052 36.851 57.601 23.832 80.15 36.851 57.601 49.87 35.052 36.851"/><path class="cls-5" d="M57.6013,24.9871,78.15,36.8509,57.6013,48.7147,37.0526,36.8509,57.6013,24.9871m0-2.3094L33.0526,36.8509,57.6013,51.0241,82.15,36.8509,57.6013,22.6777Z"/><polygon class="cls-6" points="9.504 78.794 9.504 52.756 32.052 65.774 32.052 91.811 9.504 78.794"/><path class="cls-5" d="M10.5039,54.4882,31.0526,66.352V90.08L10.5039,78.2157V54.4882m-2-3.4641V79.3705L33.0526,93.5436V65.1972L8.5039,51.0241Z"/><polygon class="cls-6" points="34.052 92.966 34.052 66.929 56.601 79.948 56.601 105.984 34.052 92.966"/><path class="cls-5" d="M35.0526,68.6614,55.6013,80.5252v23.7275L35.0526,92.3889V68.6614m-2-3.4642V93.5436l24.5487,14.1732V79.3705L33.0526,65.1972Z"/><polygon class="cls-6" points="58.601 135.486 58.601 109.449 81.15 122.467 81.15 148.504 58.601 135.486"/><path class="cls-5" d="M59.6013,111.1809,80.15,123.0447v23.7275L59.6013,134.9084V111.1809m-2-3.4641v28.3463L82.15,150.2363V121.89L57.6013,107.7168Z"/><polygon class="cls-8" points="34.053 121.313 34.053 95.276 56.601 108.294 56.601 134.33 34.053 121.313"/><path class="cls-5" d="M35.0526,97.0078l20.5487,11.8637v23.7276L35.0526,120.7352V97.0078m-2-3.4642V121.89l24.5487,14.1732V107.7168L33.0526,93.5436Z"/><polygon class="cls-6" points="9.504 107.139 9.504 81.103 32.052 94.121 32.052 120.158 9.504 107.139"/><path class="cls-5" d="M10.5039,82.8346,31.0526,94.6983v23.7276L10.5039,106.562V82.8346m-2-3.4641v28.3463L33.0526,121.89V93.5436L8.5039,79.3705Z"/><polygon class="cls-6" points="58.601 163.833 58.601 137.796 81.15 150.813 81.15 176.85 58.601 163.833"/><path class="cls-5" d="M59.6013,139.5273,80.15,151.391v23.7276L59.6013,163.2548V139.5273m-2-3.4642V164.41L82.15,178.5827V150.2363L57.6013,136.0631Z"/><polygon class="cls-8" points="34.053 149.66 34.053 123.622 56.601 136.64 56.601 162.677 34.053 149.66"/><path class="cls-5" d="M35.0526,125.3541l20.5487,11.8638v23.7275L35.0526,149.0817V125.3541m-2-3.4641v28.3463L57.6013,164.41V136.0632L33.0526,121.89Z"/><polygon class="cls-8" points="9.504 135.486 9.504 109.45 32.053 122.467 32.053 148.504 9.504 135.486"/><path class="cls-5" d="M10.5039,111.1809l20.5487,11.8638v23.7275L10.5039,134.9084V111.1809m-2-3.4641v28.3464l24.5487,14.1731V121.89L8.5039,107.7168Z"/><polygon class="cls-6" points="59.601 22.677 82.151 9.658 104.698 22.677 82.15 35.697 59.601 22.677"/><path class="cls-5" d="M82.15,10.8134l20.5483,11.8642L82.15,34.5415,61.6012,22.6777,82.15,10.8134m0-2.3095L57.6013,22.6777,82.15,36.8509l24.5487-14.1732L82.15,8.5039Z"/></svg>