<svg id="Ebene_1" data-name="Ebene 1" xmlns="http://www.w3.org/2000/svg" viewBox="0 0 425.2 425.2"><defs><style>.cls-1{fill:#1d1d1b;stroke:#706f6f;stroke-miterlimit:10;stroke-width:2px;}.cls-2{fill:#fff;}</style></defs><title>Zeichenfläche 1</title><rect id="back" class="cls-1" x="85.04" y="85.04" width="255.12" height="255.12" rx="2.83" ry="2.83" transform="translate(0 425.2) rotate(-90)"/><g id="front"><rect class="cls-1" x="170.08" y="290.34" width="85.04" height="85.04" rx="2.83" ry="2.83" transform="translate(598.3 417.9) rotate(135)"/><rect class="cls-2" x="175.75" y="296.01" width="73.7" height="73.7" rx="2.46" ry="2.46" transform="translate(598.3 417.9) rotate(135)"/><path class="cls-1" d="M112.78,230.21h79.37A2.83,2.83,0,0,1,195,233V286.9a28.35,28.35,0,0,1-28.35,28.35H138.29a28.35,28.35,0,0,1-28.35-28.35V233a2.83,2.83,0,0,1,2.83-2.83Z" transform="translate(67.43 573.39) rotate(-135)"/><path class="cls-2" d="M118.07,235.88h68.79a2.46,2.46,0,0,1,2.46,2.46V285a24.57,24.57,0,0,1-24.57,24.57H140.18A24.57,24.57,0,0,1,115.62,285V238.34a2.46,2.46,0,0,1,2.46-2.46Z" transform="translate(67.43 573.39) rotate(-135)"/><rect class="cls-1" x="170.08" y="170.08" width="85.04" height="85.04" rx="28.35" ry="28.35" transform="translate(513.26 212.6) rotate(135)"/><rect class="cls-2" x="175.75" y="175.75" width="73.7" height="73.7" rx="24.57" ry="24.57" transform="translate(513.26 212.6) rotate(135)"/><rect class="cls-1" x="290.34" y="170.08" width="85.04" height="85.04" rx="2.83" ry="2.83" transform="translate(247.82 -173.1) rotate(45)"/><rect class="cls-2" x="296.01" y="175.75" width="73.7" height="73.7" rx="2.46" ry="2.46" transform="translate(247.82 -173.1) rotate(45)"/><path class="cls-1" d="M233,230.21h79.37a2.83,2.83,0,0,1,2.83,2.83V286.9a28.35,28.35,0,0,1-28.35,28.35H258.56a28.35,28.35,0,0,1-28.35-28.35V233a2.83,2.83,0,0,1,2.83-2.83Z" transform="translate(658.43 272.73) rotate(135)"/><path class="cls-2" d="M238.34,235.88h68.79a2.46,2.46,0,0,1,2.46,2.46V285A24.57,24.57,0,0,1,285,309.58H260.45A24.57,24.57,0,0,1,235.88,285V238.34a2.46,2.46,0,0,1,2.46-2.46Z" transform="translate(658.43 272.73) rotate(135)"/><path class="cls-1" d="M233,109.95h79.37a2.83,2.83,0,0,1,2.83,2.83v53.86A28.35,28.35,0,0,1,286.9,195H258.56a28.35,28.35,0,0,1-28.35-28.35V112.78a2.83,2.83,0,0,1,2.83-2.83Z" transform="translate(187.69 -148.19) rotate(45)"/><path class="cls-2" d="M238.34,115.62h68.79a2.46,2.46,0,0,1,2.46,2.46v46.68A24.57,24.57,0,0,1,285,189.32H260.45a24.57,24.57,0,0,1-24.57-24.57V118.07a2.46,2.46,0,0,1,2.46-2.46Z" transform="translate(187.69 -148.19) rotate(45)"/><rect class="cls-1" x="170.08" y="49.81" width="85.04" height="85.04" rx="2.83" ry="2.83" transform="translate(-3.02 177.37) rotate(-45)"/><rect class="cls-2" x="175.75" y="55.48" width="73.7" height="73.7" rx="2.46" ry="2.46" transform="translate(-3.02 177.37) rotate(-45)"/><rect class="cls-1" x="49.81" y="170.08" width="85.04" height="85.04" rx="2.83" ry="2.83" transform="translate(7.3 428.22) rotate(-135)"/><rect class="cls-2" x="55.48" y="175.75" width="73.7" height="73.7" rx="2.46" ry="2.46" transform="translate(7.3 428.22) rotate(-135)"/><path class="cls-1" d="M112.78,109.95h79.37a2.83,2.83,0,0,1,2.83,2.83v53.86A28.35,28.35,0,0,1,166.64,195H138.29a28.35,28.35,0,0,1-28.35-28.35V112.78A2.83,2.83,0,0,1,112.78,109.95Z" transform="translate(-63.15 152.47) rotate(-45)"/><path class="cls-2" d="M118.07,115.62h68.79a2.46,2.46,0,0,1,2.46,2.46v46.68a24.57,24.57,0,0,1-24.57,24.57H140.18a24.57,24.57,0,0,1-24.57-24.57V118.07a2.46,2.46,0,0,1,2.46-2.46Z" transform="translate(-63.15 152.47) rotate(-45)"/></g></svg>