<svg id="Ebene_1" data-name="Ebene 1" xmlns="http://www.w3.org/2000/svg" viewBox="0 0 283.46 283.46"><defs><style>.cls-1{fill:#fff;stroke:#575756;stroke-miterlimit:10;stroke-width:2px;}.cls-2{fill:#1d1d1b;}</style></defs><title>E-Perm</title><g id="E-Perm"><g id="blank"><rect class="cls-1" x="56.696" y="56.6929" width="56.6929" height="56.6929"/><rect class="cls-1" x="113.3889" y="56.6929" width="56.6929" height="56.6929"/><rect class="cls-1" x="170.0818" y="56.6929" width="56.6929" height="56.6929"/><rect class="cls-1" x="56.696" y="113.3858" width="56.6929" height="56.6929"/><rect class="cls-1" x="113.3889" y="113.3858" width="56.6929" height="56.6929"/><rect class="cls-1" x="170.0818" y="113.3858" width="56.6929" height="56.6929"/><rect class="cls-1" x="56.696" y="170.0787" width="56.6929" height="56.6929"/><rect class="cls-1" x="113.3889" y="170.0787" width="56.6929" height="56.6929"/><rect class="cls-1" x="170.0818" y="170.0787" width="56.6929" height="56.6929"/></g><g id="edge"><rect class="cls-2" x="119.0593" y="232.443" width="45.3543" height="8.5039" transform="translate(283.4728 473.39) rotate(180)"/><rect class="cls-2" x="24.0986" y="137.4824" width="45.3543" height="8.5039" transform="translate(-94.9586 188.5101) rotate(-90)"/><rect class="cls-2" x="214.0178" y="137.4803" width="45.3543" height="8.5039" transform="translate(378.4273 -94.9627) rotate(90)"/><rect class="cls-2" x="119.0572" y="42.5197" width="45.3543" height="8.5039"/></g><g id="arrow"><polygon class="cls-2" points="201.26 82.207 215.433 82.207 198.425 65.199 181.417 82.207 195.591 82.207 195.591 201.262 181.417 201.262 198.425 218.27 215.433 201.262 201.26 201.262 201.26 82.207"/><polygon class="cls-2" points="87.878 85.041 102.051 85.041 85.044 68.034 68.036 85.041 82.209 85.041 82.209 204.097 68.036 204.097 85.044 221.104 102.051 204.097 87.878 204.097 87.878 85.041"/></g></g></svg>