<svg id="Ebene_1" data-name="Ebene 1" xmlns="http://www.w3.org/2000/svg" viewBox="0 0 283.46 283.46"><defs><style>.cls-1{fill:#fff;stroke:#575756;stroke-miterlimit:10;stroke-width:2px;}.cls-2{fill:#1d1d1b;}</style></defs><title>H-Perm</title><g id="H-Perm"><g id="blank"><rect class="cls-1" x="56.696" y="56.6929" width="56.6929" height="56.6929"/><rect class="cls-1" x="113.3889" y="56.6929" width="56.6929" height="56.6929"/><rect class="cls-1" x="170.0818" y="56.6929" width="56.6929" height="56.6929"/><rect class="cls-1" x="56.696" y="113.3858" width="56.6929" height="56.6929"/><rect class="cls-1" x="113.3889" y="113.3858" width="56.6929" height="56.6929"/><rect class="cls-1" x="170.0818" y="113.3858" width="56.6929" height="56.6929"/><rect class="cls-1" x="56.696" y="170.0787" width="56.6929" height="56.6929"/><rect class="cls-1" x="113.3889" y="170.0787" width="56.6929" height="56.6929"/><rect class="cls-1" x="170.0818" y="170.0787" width="56.6929" height="56.6929"/></g><g id="edge"><rect class="cls-2" x="24.0976" y="194.1732" width="45.3543" height="8.5039" transform="translate(245.2 151.6505) rotate(90)"/><rect class="cls-2" x="62.3653" y="232.441" width="45.3543" height="8.5039"/><rect class="cls-2" x="214.0189" y="80.7874" width="45.3543" height="8.5039" transform="translate(151.6566 321.7354) rotate(-90)"/><rect class="cls-2" x="175.7511" y="42.5197" width="45.3543" height="8.5039" transform="translate(396.8566 93.5433) rotate(180)"/><rect class="cls-2" x="175.7511" y="232.441" width="45.3543" height="8.5039"/><rect class="cls-2" x="214.0189" y="194.1732" width="45.3543" height="8.5039" transform="translate(38.2708 435.1212) rotate(-90)"/><rect class="cls-2" x="62.3653" y="42.5197" width="45.3543" height="8.5039" transform="translate(170.0849 93.5433) rotate(180)"/><rect class="cls-2" x="24.0976" y="80.7874" width="45.3543" height="8.5039" transform="translate(131.8141 38.2646) rotate(90)"/></g><g id="arrow"><polygon class="cls-2" points="144.57 82.205 158.743 82.205 141.735 65.197 124.728 82.205 138.901 82.205 138.901 201.26 124.728 201.26 141.735 218.268 158.743 201.26 144.57 201.26 144.57 82.205"/><polygon class="cls-2" points="218.271 141.732 201.263 124.724 201.263 138.898 82.208 138.898 82.208 124.724 65.2 141.732 82.208 158.74 82.208 144.567 201.263 144.567 201.263 158.74 218.271 141.732"/></g></g></svg>