<svg id="Ebene_1" data-name="Ebene 1" xmlns="http://www.w3.org/2000/svg" viewBox="0 0 283.46 283.46"><defs><style>.cls-1{fill:#fff;stroke:#575756;stroke-miterlimit:10;stroke-width:2px;}.cls-2{fill:#1d1d1b;}</style></defs><title>Ja-Perm</title><g id="Ja-Perm"><g id="blank"><rect class="cls-1" x="56.696" y="56.6929" width="56.6929" height="56.6929"/><rect class="cls-1" x="113.3889" y="56.6929" width="56.6929" height="56.6929"/><rect class="cls-1" x="170.0818" y="56.6929" width="56.6929" height="56.6929"/><rect class="cls-1" x="56.696" y="113.3858" width="56.6929" height="56.6929"/><rect class="cls-1" x="113.3889" y="113.3858" width="56.6929" height="56.6929"/><rect class="cls-1" x="170.0818" y="113.3858" width="56.6929" height="56.6929"/><rect class="cls-1" x="56.696" y="170.0787" width="56.6929" height="56.6929"/><rect class="cls-1" x="113.3889" y="170.0787" width="56.6929" height="56.6929"/><rect class="cls-1" x="170.0818" y="170.0787" width="56.6929" height="56.6929"/></g><g id="edge"><rect class="cls-2" x="24.0976" y="194.1732" width="45.3543" height="8.5039" transform="translate(245.2 151.6505) rotate(90)"/><rect class="cls-2" x="62.3653" y="232.441" width="45.3543" height="8.5039"/><rect class="cls-2" x="62.3653" y="42.5197" width="45.3543" height="8.5039" transform="translate(170.0849 93.5433) rotate(180)"/><rect class="cls-2" x="24.0976" y="80.7874" width="45.3543" height="8.5039" transform="translate(131.8141 38.2646) rotate(90)"/><rect class="cls-2" x="24.0986" y="137.4814" width="45.3543" height="8.5039" transform="translate(-94.9575 188.5091) rotate(-90)"/><rect class="cls-2" x="119.0551" y="232.443" width="45.3543" height="8.5039"/></g><g id="arrow"><polygon class="cls-2" points="201.26 82.207 215.433 82.207 198.425 65.199 181.417 82.207 195.591 82.207 195.591 201.262 181.417 201.262 198.425 218.27 215.433 201.262 201.26 201.262 201.26 82.207"/><polygon class="cls-2" points="147.402 65.199 121.89 65.199 121.89 90.711 132.641 79.959 203.507 150.825 192.756 161.577 218.268 161.577 218.268 136.065 207.516 146.817 136.65 75.95 147.402 65.199"/></g></g></svg>