<svg id="Ebene_1" data-name="Ebene 1" xmlns="http://www.w3.org/2000/svg" viewBox="0 0 283.46 283.46"><defs><style>.cls-1{fill:#fff;stroke:#575756;stroke-miterlimit:10;stroke-width:2px;}.cls-2{fill:#1d1d1b;}</style></defs><title>Na-Perm</title><g id="Na-Perm"><g id="blank"><rect class="cls-1" x="56.696" y="170.0808" width="56.6929" height="56.6929"/><rect class="cls-1" x="113.3889" y="170.0808" width="56.6929" height="56.6929"/><rect class="cls-1" x="170.0818" y="170.0808" width="56.6929" height="56.6929"/><rect class="cls-1" x="56.696" y="113.3879" width="56.6929" height="56.6929"/><rect class="cls-1" x="113.3889" y="113.3879" width="56.6929" height="56.6929"/><rect class="cls-1" x="170.0818" y="113.3879" width="56.6929" height="56.6929"/><rect class="cls-1" x="56.696" y="56.695" width="56.6929" height="56.6929"/><rect class="cls-1" x="113.3889" y="56.695" width="56.6929" height="56.6929"/><rect class="cls-1" x="170.0818" y="56.695" width="56.6929" height="56.6929"/></g><g id="edge"><rect class="cls-2" x="24.0976" y="80.7895" width="45.3543" height="8.5039" transform="translate(-38.2667 131.8162) rotate(-90)"/><rect class="cls-2" x="62.3653" y="42.5218" width="45.3543" height="8.5039"/><rect class="cls-2" x="118.0562" y="232.444" width="45.3543" height="8.5039" transform="translate(281.4666 473.392) rotate(180)"/><rect class="cls-2" x="174.748" y="232.444" width="45.3543" height="8.5039"/><rect class="cls-2" x="213.0158" y="194.1763" width="45.3543" height="8.5039" transform="translate(37.2646 434.1212) rotate(-90)"/><rect class="cls-2" x="118.0551" y="42.5228" width="45.3543" height="8.5039"/></g><g id="arrow"><polygon class="cls-2" points="200.26 136.066 200.26 121.893 217.268 138.901 200.26 155.909 200.26 141.735 81.205 141.735 81.205 155.909 64.197 138.901 81.205 121.893 81.205 136.066 200.26 136.066"/><polygon class="cls-2" points="202.507 75.951 74.948 203.51 64.197 192.759 64.197 218.271 89.709 218.271 78.957 207.519 206.516 79.96 217.268 90.712 217.268 65.2 191.756 65.2 202.507 75.951"/></g></g></svg>