<svg id="Ebene_1" data-name="Ebene 1" xmlns="http://www.w3.org/2000/svg" viewBox="0 0 283.46 283.46"><defs><style>.cls-1{fill:#fff;stroke:#575756;stroke-miterlimit:10;stroke-width:2px;}.cls-2{fill:#1d1d1b;}</style></defs><title>T-Perm</title><g id="T-Perm"><g id="blank"><rect class="cls-1" x="56.6929" y="56.6929" width="56.6929" height="56.6929"/><rect class="cls-1" x="113.3858" y="56.6929" width="56.6929" height="56.6929"/><rect class="cls-1" x="170.0787" y="56.6929" width="56.6929" height="56.6929"/><rect class="cls-1" x="56.6929" y="113.3858" width="56.6929" height="56.6929"/><rect class="cls-1" x="113.3858" y="113.3858" width="56.6929" height="56.6929"/><rect class="cls-1" x="170.0787" y="113.3858" width="56.6929" height="56.6929"/><rect class="cls-1" x="56.6929" y="170.0787" width="56.6929" height="56.6929"/><rect class="cls-1" x="113.3858" y="170.0787" width="56.6929" height="56.6929"/><rect class="cls-1" x="170.0787" y="170.0787" width="56.6929" height="56.6929"/></g><g id="edge"><rect class="cls-2" x="24.0945" y="194.1732" width="45.3543" height="8.5039" transform="translate(245.1969 151.6535) rotate(90)"/><rect class="cls-2" x="62.3622" y="232.441" width="45.3543" height="8.5039"/><rect class="cls-2" x="119.0551" y="232.441" width="45.3543" height="8.5039"/><rect class="cls-2" x="24.0966" y="80.7874" width="45.3543" height="8.5039" transform="translate(-38.2657 131.8131) rotate(-90)"/><rect class="cls-2" x="119.0572" y="42.5197" width="45.3543" height="8.5039" transform="translate(283.4687 93.5433) rotate(180)"/><rect class="cls-2" x="62.3643" y="42.5197" width="45.3543" height="8.5039" transform="translate(170.0829 93.5433) rotate(180)"/></g><g id="arrow"><polygon class="cls-2" points="201.262 82.205 215.435 82.205 198.427 65.197 181.419 82.205 195.593 82.205 195.593 201.26 181.419 201.26 198.427 218.268 215.435 201.26 201.262 201.26 201.262 82.205"/><polygon class="cls-2" points="218.27 141.732 201.262 124.724 201.262 138.898 82.207 138.898 82.207 124.724 65.199 141.732 82.207 158.74 82.207 144.567 201.262 144.567 201.262 158.74 218.27 141.732"/></g></g></svg>