<svg id="Ebene_1" data-name="Ebene 1" xmlns="http://www.w3.org/2000/svg" viewBox="0 0 283.46 283.46"><defs><style>.cls-1{fill:#fff;stroke:#575756;stroke-miterlimit:10;stroke-width:2px;}.cls-2{fill:#1d1d1b;}</style></defs><title>Ua-Perm</title><g id="Ua-Perm"><g id="blank"><rect class="cls-1" x="56.6929" y="56.6929" width="56.6929" height="56.6929"/><rect class="cls-1" x="113.3858" y="56.6929" width="56.6929" height="56.6929"/><rect class="cls-1" x="170.0787" y="56.6929" width="56.6929" height="56.6929"/><rect class="cls-1" x="56.6929" y="113.3858" width="56.6929" height="56.6929"/><rect class="cls-1" x="113.3858" y="113.3858" width="56.6929" height="56.6929"/><rect class="cls-1" x="170.0787" y="113.3858" width="56.6929" height="56.6929"/><rect class="cls-1" x="56.6929" y="170.0787" width="56.6929" height="56.6929"/><rect class="cls-1" x="113.3858" y="170.0787" width="56.6929" height="56.6929"/><rect class="cls-1" x="170.0787" y="170.0787" width="56.6929" height="56.6929"/></g><g id="edge"><rect class="cls-2" x="24.0986" y="194.1732" width="45.3543" height="8.5039" transform="translate(245.201 151.6494) rotate(90)"/><rect class="cls-2" x="62.3663" y="232.441" width="45.3543" height="8.5039"/><rect class="cls-2" x="214.0199" y="80.7874" width="45.3543" height="8.5039" transform="translate(151.6577 321.7364) rotate(-90)"/><rect class="cls-2" x="175.7522" y="42.5197" width="45.3543" height="8.5039" transform="translate(396.8587 93.5433) rotate(180)"/><rect class="cls-2" x="175.7522" y="232.441" width="45.3543" height="8.5039"/><rect class="cls-2" x="214.0199" y="194.1732" width="45.3543" height="8.5039" transform="translate(38.2718 435.1223) rotate(-90)"/><rect class="cls-2" x="62.3663" y="42.5197" width="45.3543" height="8.5039" transform="translate(170.087 93.5433) rotate(180)"/><rect class="cls-2" x="24.0986" y="80.7874" width="45.3543" height="8.5039" transform="translate(131.8152 38.2636) rotate(90)"/><rect class="cls-2" x="119.0551" y="42.5207" width="45.3543" height="8.5039" transform="translate(283.4646 93.5454) rotate(180)"/></g><g id="arrow"><polygon class="cls-2" points="82.205 138.899 82.205 124.725 65.197 141.733 82.205 158.741 82.205 144.568 178.583 144.568 178.583 138.899 82.205 138.899"/><polygon class="cls-2" points="150.823 203.508 106.886 159.571 102.878 163.58 146.815 207.517 136.063 218.269 161.575 218.269 161.575 192.757 150.823 203.508"/><polygon class="cls-2" points="218.268 121.891 192.756 121.891 203.507 132.642 159.57 176.579 163.579 180.588 207.516 136.651 218.268 147.403 218.268 121.891"/></g></g></svg>